%FSLAX45Y45*%
G04 Gerber Fmt 4.5, Leading zero omitted, Abs format (unit mm)*
G04 Created by KiCad (PCBNEW (6.0.1)) date 2022-02-04 13:53:06*
%MOMM*%
%LPD*%
G01*
G04 APERTURE LIST*
%TA.AperFunction,Profile*%
%ADD10C,0.038100*%
%TD*%
%ADD11C,0.200000*%
%ADD12C,0.080000*%
%ADD13C,0.100000*%
G04 APERTURE END LIST*
D10*
X16618200Y-9262795D02*
X16618200Y-9272795D01*
X12458200Y-13462795D02*
X12428200Y-13462795D01*
X11558200Y-9702795D02*
G75*
G03*
X11538200Y-9722795I0J-20000D01*
G01*
X12478200Y-13482795D02*
X12478200Y-13502795D01*
X11538200Y-11822795D02*
X11538200Y-11812795D01*
X13878200Y-7622795D02*
X13908200Y-7622795D01*
X16558200Y-9382795D02*
G75*
G03*
X16578200Y-9402795I20000J0D01*
G01*
X11538200Y-9382795D02*
X11538200Y-9372795D01*
X16558200Y-11642795D02*
G75*
G03*
X16458200Y-11542795I-100000J0D01*
G01*
X12988200Y-11502795D02*
X12988200Y-11522795D01*
X12858200Y-13492795D02*
G75*
G03*
X12828200Y-13462795I-30000J0D01*
G01*
X16578200Y-8942795D02*
X16598200Y-8942795D01*
X16618200Y-9262795D02*
G75*
G03*
X16598200Y-9242795I-20000J0D01*
G01*
X16168200Y-11542795D02*
X16458200Y-11542795D01*
X11538200Y-8922795D02*
G75*
G03*
X11558200Y-8942795I20000J0D01*
G01*
X11538200Y-12172795D02*
X11538200Y-12162795D01*
X16618200Y-9722795D02*
G75*
G03*
X16598200Y-9702795I-20000J0D01*
G01*
X13818200Y-11562795D02*
G75*
G03*
X13798200Y-11542795I-20000J0D01*
G01*
X16618200Y-11812795D02*
X16618200Y-11822795D01*
X14258200Y-7562795D02*
G75*
G03*
X14278200Y-7542795I0J20000D01*
G01*
X15758200Y-13492795D02*
X15758200Y-13552795D01*
X16168200Y-11482795D02*
G75*
G03*
X16148200Y-11502795I0J-20000D01*
G01*
X16168200Y-11482795D02*
X16458200Y-11482795D01*
X11988200Y-11482795D02*
X11698200Y-11482795D01*
X15268200Y-13582795D02*
X12888200Y-13582795D01*
X11038200Y-8892795D02*
X11518200Y-8892795D01*
X11578200Y-8942795D02*
G75*
G03*
X11598200Y-8922795I0J20000D01*
G01*
X15678200Y-13482795D02*
X15678200Y-13502795D01*
X11038200Y-9292795D02*
X11518200Y-9292795D01*
X15758200Y-13552795D02*
G75*
G03*
X15788200Y-13582795I30000J0D01*
G01*
X15328200Y-13582795D02*
X15328200Y-13542795D01*
X15728200Y-13542795D02*
G75*
G03*
X15708200Y-13522795I-20000J0D01*
G01*
X12858200Y-13552795D02*
G75*
G03*
X12888200Y-13582795I30000J0D01*
G01*
X16618200Y-12162795D02*
X16618200Y-12172795D01*
X14228200Y-7602795D02*
G75*
G03*
X14248200Y-7622795I20000J0D01*
G01*
X13818200Y-11602795D02*
G75*
G03*
X14338200Y-11602795I260000J0D01*
G01*
X13008200Y-11482795D02*
G75*
G03*
X12988200Y-11502795I0J-20000D01*
G01*
X14338200Y-7502795D02*
X16458200Y-7502795D01*
X11698200Y-7502795D02*
G75*
G03*
X11598200Y-7602795I0J-100000D01*
G01*
X16618200Y-9732795D02*
G75*
G03*
X16638200Y-9752795I20000J0D01*
G01*
X11538200Y-9372795D02*
G75*
G03*
X11518200Y-9352795I-20000J0D01*
G01*
X13848200Y-7532795D02*
G75*
G03*
X13818200Y-7502795I-30000J0D01*
G01*
X14278200Y-11562795D02*
X14278200Y-11602795D01*
X12828200Y-13462795D02*
X12798200Y-13462795D01*
X11988200Y-11542795D02*
X11698200Y-11542795D01*
X14278200Y-7542795D02*
X14278200Y-7502795D01*
X11538200Y-9732795D02*
X11538200Y-9722795D01*
X15708200Y-13522795D02*
X15698200Y-13522795D01*
X11558200Y-12142795D02*
G75*
G03*
X11538200Y-12162795I0J-20000D01*
G01*
X11598200Y-11382795D02*
X11598200Y-9722795D01*
X17118200Y-12192794D02*
X16638200Y-12192795D01*
X17118200Y-8892795D02*
X16638200Y-8892795D01*
X13008200Y-11482795D02*
X13908200Y-11482795D01*
X16558200Y-11822795D02*
G75*
G03*
X16578200Y-11842795I20000J0D01*
G01*
X16458200Y-13582795D02*
X15788200Y-13582795D01*
X16578200Y-9702795D02*
G75*
G03*
X16558200Y-9722795I0J-20000D01*
G01*
X11038200Y-8892795D02*
G75*
G03*
X11038200Y-9292795I0J-200000D01*
G01*
X12478200Y-13482795D02*
G75*
G03*
X12458200Y-13462795I-20000J0D01*
G01*
X12828200Y-13542795D02*
G75*
G03*
X12808200Y-13522795I-20000J0D01*
G01*
X12428200Y-13582795D02*
G75*
G03*
X12828200Y-13582795I200000J0D01*
G01*
X15678200Y-13502795D02*
G75*
G03*
X15698200Y-13522795I20000J0D01*
G01*
X11698200Y-11542795D02*
G75*
G03*
X11598200Y-11642795I0J-100000D01*
G01*
X11578200Y-12142795D02*
X11558200Y-12142795D01*
X11578200Y-9402795D02*
G75*
G03*
X11598200Y-9382795I0J20000D01*
G01*
X14278200Y-11562795D02*
G75*
G03*
X14258200Y-11542795I-20000J0D01*
G01*
X14358200Y-11542795D02*
X15148200Y-11542795D01*
X11578200Y-11842795D02*
X11558200Y-11842795D01*
X16558200Y-8922795D02*
X16558200Y-7602795D01*
X13928200Y-7582795D02*
G75*
G03*
X13908200Y-7562795I-20000J0D01*
G01*
X16598200Y-8942795D02*
G75*
G03*
X16618200Y-8922795I0J20000D01*
G01*
X17118200Y-9292795D02*
G75*
G03*
X17118200Y-8892795I0J200000D01*
G01*
X15728200Y-13462795D02*
X15698200Y-13462795D01*
X16578200Y-12142795D02*
X16598200Y-12142795D01*
X15358200Y-13462795D02*
X15328200Y-13462795D01*
X13908200Y-11542795D02*
G75*
G03*
X13928200Y-11522795I0J20000D01*
G01*
X12808200Y-13522795D02*
X12798200Y-13522795D01*
X16678200Y-9752795D02*
X16638200Y-9752795D01*
X11598200Y-9722795D02*
G75*
G03*
X11578200Y-9702795I-20000J0D01*
G01*
X15698200Y-13462795D02*
G75*
G03*
X15678200Y-13482795I0J-20000D01*
G01*
X16678200Y-9352795D02*
X16638200Y-9352795D01*
X16618200Y-12162795D02*
G75*
G03*
X16598200Y-12142795I-20000J0D01*
G01*
X14248200Y-7622795D02*
X14278200Y-7622795D01*
X15148200Y-11542795D02*
G75*
G03*
X15168200Y-11522795I0J20000D01*
G01*
X14358200Y-11542795D02*
G75*
G03*
X14338200Y-11562795I0J-20000D01*
G01*
X12828200Y-13542795D02*
X12828200Y-13582795D01*
X16598200Y-11842795D02*
G75*
G03*
X16618200Y-11822795I0J20000D01*
G01*
X11598200Y-9262795D02*
G75*
G03*
X11578200Y-9242795I-20000J0D01*
G01*
X14228200Y-7602795D02*
X14228200Y-7582795D01*
X11538200Y-8922795D02*
X11538200Y-8912795D01*
X15358200Y-13522795D02*
X15348200Y-13522795D01*
X15328200Y-13462795D02*
G75*
G03*
X15298200Y-13492795I0J-30000D01*
G01*
X11698200Y-13582795D02*
X12368200Y-13582795D01*
X12798200Y-13462795D02*
G75*
G03*
X12778200Y-13482795I0J-20000D01*
G01*
X11518200Y-9752795D02*
G75*
G03*
X11538200Y-9732795I0J20000D01*
G01*
X11698200Y-7502795D02*
X13818200Y-7502795D01*
X13878200Y-7502795D02*
X13878200Y-7542795D01*
X12368200Y-13582795D02*
G75*
G03*
X12398200Y-13552795I0J30000D01*
G01*
X12778200Y-13482795D02*
X12778200Y-13502795D01*
X11988200Y-11542795D02*
G75*
G03*
X12008200Y-11522795I0J20000D01*
G01*
X14308200Y-7532795D02*
X14308200Y-7562795D01*
X11538200Y-11812795D02*
G75*
G03*
X11518200Y-11792795I-20000J0D01*
G01*
X16678200Y-9752795D02*
G75*
G03*
X16678200Y-9352795I0J200000D01*
G01*
X14278200Y-7502795D02*
G75*
G03*
X13878200Y-7502795I-200000J0D01*
G01*
X14258200Y-11542795D02*
X14248200Y-11542795D01*
X14278200Y-7622795D02*
G75*
G03*
X14308200Y-7592795I0J30000D01*
G01*
X11578200Y-9242795D02*
X11558200Y-9242795D01*
X14228200Y-11522795D02*
G75*
G03*
X14248200Y-11542795I20000J0D01*
G01*
X14228200Y-11502795D02*
X14228200Y-11522795D01*
X13878200Y-11562795D02*
X13878200Y-11602795D01*
X11578200Y-9402795D02*
X11558200Y-9402795D01*
X16578200Y-9242795D02*
G75*
G03*
X16558200Y-9262795I0J-20000D01*
G01*
X16618200Y-9372795D02*
X16618200Y-9382795D01*
X15328200Y-13582795D02*
G75*
G03*
X15728200Y-13582795I200000J0D01*
G01*
X16578200Y-11842795D02*
X16598200Y-11842795D01*
X13908200Y-7622795D02*
G75*
G03*
X13928200Y-7602795I0J20000D01*
G01*
X13878200Y-11602795D02*
G75*
G03*
X14278200Y-11602795I200000J0D01*
G01*
X16638200Y-9352795D02*
G75*
G03*
X16618200Y-9372795I0J-20000D01*
G01*
X12008200Y-11502795D02*
G75*
G03*
X11988200Y-11482795I-20000J0D01*
G01*
X11598200Y-8922795D02*
X11598200Y-7602795D01*
X14248200Y-11482795D02*
G75*
G03*
X14228200Y-11502795I0J-20000D01*
G01*
X13898200Y-7562795D02*
X13908200Y-7562795D01*
X13008200Y-11542795D02*
X13798200Y-11542795D01*
X16638200Y-11792795D02*
G75*
G03*
X16618200Y-11812795I0J-20000D01*
G01*
X12988200Y-11522795D02*
G75*
G03*
X13008200Y-11542795I20000J0D01*
G01*
X11558200Y-9242795D02*
G75*
G03*
X11538200Y-9262795I0J-20000D01*
G01*
X12428200Y-13462795D02*
G75*
G03*
X12398200Y-13492795I0J-30000D01*
G01*
X12458200Y-13522795D02*
X12448200Y-13522795D01*
X16558200Y-11642795D02*
X16558200Y-11822795D01*
X11578200Y-9702795D02*
X11558200Y-9702795D01*
X12448200Y-13522795D02*
G75*
G03*
X12428200Y-13542795I0J-20000D01*
G01*
X15298200Y-13492795D02*
X15298200Y-13552795D01*
X16558200Y-8922795D02*
G75*
G03*
X16578200Y-8942795I20000J0D01*
G01*
X11538200Y-9272795D02*
X11538200Y-9262795D01*
X11518200Y-9292795D02*
G75*
G03*
X11538200Y-9272795I0J20000D01*
G01*
X11538200Y-8912795D02*
G75*
G03*
X11518200Y-8892795I-20000J0D01*
G01*
X16618200Y-9722795D02*
X16618200Y-9732795D01*
X11038200Y-11792795D02*
X11518200Y-11792795D01*
X11598200Y-12162795D02*
X11598200Y-13482795D01*
X14308200Y-7592795D02*
X14308200Y-7562795D01*
X16638200Y-8892795D02*
G75*
G03*
X16618200Y-8912795I0J-20000D01*
G01*
X16558200Y-7602795D02*
G75*
G03*
X16458200Y-7502795I-100000J0D01*
G01*
X11598200Y-12162795D02*
G75*
G03*
X11578200Y-12142795I-20000J0D01*
G01*
X13908200Y-11542795D02*
X13898200Y-11542795D01*
X11478200Y-9752795D02*
X11518200Y-9752795D01*
X13928200Y-11502795D02*
G75*
G03*
X13908200Y-11482795I-20000J0D01*
G01*
X11538200Y-11822795D02*
G75*
G03*
X11558200Y-11842795I20000J0D01*
G01*
X14248200Y-7562795D02*
X14258200Y-7562795D01*
X13928200Y-11502795D02*
X13928200Y-11522795D01*
X12428200Y-13582795D02*
X12428200Y-13542795D01*
X13848200Y-7532795D02*
X13848200Y-7592795D01*
X13848200Y-7592795D02*
G75*
G03*
X13878200Y-7622795I30000J0D01*
G01*
X13898200Y-11542795D02*
G75*
G03*
X13878200Y-11562795I0J-20000D01*
G01*
X16578200Y-9242795D02*
X16598200Y-9242795D01*
X11038200Y-12192795D02*
X11518200Y-12192795D01*
X15168200Y-11502795D02*
G75*
G03*
X15148200Y-11482795I-20000J0D01*
G01*
X16578200Y-9702795D02*
X16598200Y-9702795D01*
X14248200Y-7562795D02*
G75*
G03*
X14228200Y-7582795I0J-20000D01*
G01*
X16558200Y-12162795D02*
X16558200Y-13482795D01*
X16598200Y-9402795D02*
G75*
G03*
X16618200Y-9382795I0J20000D01*
G01*
X11478200Y-9352795D02*
X11518200Y-9352795D01*
X15758200Y-13492795D02*
G75*
G03*
X15728200Y-13462795I-30000J0D01*
G01*
X16458200Y-11482795D02*
G75*
G03*
X16558200Y-11382795I0J100000D01*
G01*
X11578200Y-11842795D02*
G75*
G03*
X11598200Y-11822795I0J20000D01*
G01*
X11578200Y-8942795D02*
X11558200Y-8942795D01*
X15728200Y-13582795D02*
X15728200Y-13542795D01*
X13818200Y-11602795D02*
X13818200Y-11562795D01*
X11518200Y-12192795D02*
G75*
G03*
X11538200Y-12172795I0J20000D01*
G01*
X12398200Y-13492795D02*
X12398200Y-13552795D01*
X15268200Y-13582795D02*
G75*
G03*
X15298200Y-13552795I0J30000D01*
G01*
X15378200Y-13482795D02*
G75*
G03*
X15358200Y-13462795I-20000J0D01*
G01*
X16558200Y-9262795D02*
X16558200Y-9382795D01*
X16578200Y-9402795D02*
X16598200Y-9402795D01*
X11598200Y-11382795D02*
G75*
G03*
X11698200Y-11482795I100000J0D01*
G01*
X16618200Y-8912795D02*
X16618200Y-8922795D01*
X11478200Y-9352795D02*
G75*
G03*
X11478200Y-9752795I0J-200000D01*
G01*
X11538200Y-9382795D02*
G75*
G03*
X11558200Y-9402795I20000J0D01*
G01*
X12458200Y-13522795D02*
G75*
G03*
X12478200Y-13502795I0J20000D01*
G01*
X11598200Y-9382795D02*
X11598200Y-9262795D01*
X16618200Y-9272795D02*
G75*
G03*
X16638200Y-9292795I20000J0D01*
G01*
X16458200Y-13582795D02*
G75*
G03*
X16558200Y-13482795I0J100000D01*
G01*
X15168200Y-11502795D02*
X15168200Y-11522795D01*
X17118200Y-12192795D02*
G75*
G03*
X17118200Y-11792795I0J200000D01*
G01*
X16148200Y-11522795D02*
G75*
G03*
X16168200Y-11542795I20000J0D01*
G01*
X12858200Y-13492795D02*
X12858200Y-13552795D01*
X16148200Y-11502795D02*
X16148200Y-11522795D01*
X17118200Y-9292795D02*
X16638200Y-9292795D01*
X16618200Y-12172795D02*
G75*
G03*
X16638200Y-12192795I20000J0D01*
G01*
X14338200Y-11602795D02*
X14338200Y-11562795D01*
X12778200Y-13502795D02*
G75*
G03*
X12798200Y-13522795I20000J0D01*
G01*
X12008200Y-11502795D02*
X12008200Y-11522795D01*
X15378200Y-13482795D02*
X15378200Y-13502795D01*
X13878200Y-7542795D02*
G75*
G03*
X13898200Y-7562795I20000J0D01*
G01*
X11038200Y-11792795D02*
G75*
G03*
X11038200Y-12192795I0J-200000D01*
G01*
X14338200Y-7502795D02*
G75*
G03*
X14308200Y-7532795I0J-30000D01*
G01*
X15358200Y-13522795D02*
G75*
G03*
X15378200Y-13502795I0J20000D01*
G01*
X15348200Y-13522795D02*
G75*
G03*
X15328200Y-13542795I0J-20000D01*
G01*
X13928200Y-7602795D02*
X13928200Y-7582795D01*
X17118200Y-11792795D02*
X16638200Y-11792795D01*
X16578200Y-12142795D02*
G75*
G03*
X16558200Y-12162795I0J-20000D01*
G01*
X11598200Y-11822795D02*
X11598200Y-11642795D01*
X14248200Y-11482795D02*
X15148200Y-11482795D01*
X16558200Y-11382795D02*
X16558200Y-9722795D01*
X11598200Y-13482795D02*
G75*
G03*
X11698200Y-13582795I100000J0D01*
G01*
D11*
D12*
X12076200Y-10344045D02*
X12156200Y-10424045D01*
X12156200Y-10344045D02*
X12076200Y-10424045D01*
X12076200Y-10844045D02*
X12156200Y-10924045D01*
X12156200Y-10844045D02*
X12076200Y-10924045D01*
X12204200Y-9092795D02*
X12284200Y-9172795D01*
X12284200Y-9092795D02*
X12204200Y-9172795D01*
X12458200Y-9092795D02*
X12538200Y-9172795D01*
X12538200Y-9092795D02*
X12458200Y-9172795D01*
X12712200Y-9092795D02*
X12792200Y-9172795D01*
X12792200Y-9092795D02*
X12712200Y-9172795D01*
X15364200Y-9092795D02*
X15444200Y-9172795D01*
X15444200Y-9092795D02*
X15364200Y-9172795D01*
X15618200Y-9092795D02*
X15698200Y-9172795D01*
X15698200Y-9092795D02*
X15618200Y-9172795D01*
X15872200Y-9092795D02*
X15952200Y-9172795D01*
X15952200Y-9092795D02*
X15872200Y-9172795D01*
D13*
X11088200Y-9092795D02*
G75*
G03*
X11088200Y-9092795I-50000J0D01*
G01*
X11088200Y-11992795D02*
G75*
G03*
X11088200Y-11992795I-50000J0D01*
G01*
X11528200Y-9552795D02*
G75*
G03*
X11528200Y-9552795I-50000J0D01*
G01*
X12166200Y-11152795D02*
G75*
G03*
X12166200Y-11152795I-50000J0D01*
G01*
X12166200Y-13232795D02*
G75*
G03*
X12166200Y-13232795I-50000J0D01*
G01*
X12192200Y-9632795D02*
G75*
G03*
X12192200Y-9632795I-50000J0D01*
G01*
X12420200Y-11152795D02*
G75*
G03*
X12420200Y-11152795I-50000J0D01*
G01*
X12420200Y-13232795D02*
G75*
G03*
X12420200Y-13232795I-50000J0D01*
G01*
X12548200Y-10432795D02*
G75*
G03*
X12548200Y-10432795I-50000J0D01*
G01*
X12674200Y-11152795D02*
G75*
G03*
X12674200Y-11152795I-50000J0D01*
G01*
X12674200Y-13232795D02*
G75*
G03*
X12674200Y-13232795I-50000J0D01*
G01*
X12678200Y-13582795D02*
G75*
G03*
X12678200Y-13582795I-50000J0D01*
G01*
X12902200Y-9632795D02*
G75*
G03*
X12902200Y-9632795I-50000J0D01*
G01*
X12928200Y-11152795D02*
G75*
G03*
X12928200Y-11152795I-50000J0D01*
G01*
X12928200Y-13232795D02*
G75*
G03*
X12928200Y-13232795I-50000J0D01*
G01*
X13695580Y-9132795D02*
G75*
G03*
X13695580Y-9132795I-50000J0D01*
G01*
X13875700Y-10432795D02*
G75*
G03*
X13875700Y-10432795I-50000J0D01*
G01*
X14128200Y-7502795D02*
G75*
G03*
X14128200Y-7502795I-50000J0D01*
G01*
X14128200Y-10042795D02*
G75*
G03*
X14128200Y-10042795I-50000J0D01*
G01*
X14128200Y-11602795D02*
G75*
G03*
X14128200Y-11602795I-50000J0D01*
G01*
X14129700Y-10432795D02*
G75*
G03*
X14129700Y-10432795I-50000J0D01*
G01*
X14383700Y-10432795D02*
G75*
G03*
X14383700Y-10432795I-50000J0D01*
G01*
X14560820Y-9132795D02*
G75*
G03*
X14560820Y-9132795I-50000J0D01*
G01*
X15328200Y-11152795D02*
G75*
G03*
X15328200Y-11152795I-50000J0D01*
G01*
X15328200Y-13232795D02*
G75*
G03*
X15328200Y-13232795I-50000J0D01*
G01*
X15354200Y-9632795D02*
G75*
G03*
X15354200Y-9632795I-50000J0D01*
G01*
X15456700Y-10432795D02*
G75*
G03*
X15456700Y-10432795I-50000J0D01*
G01*
X15578200Y-13582795D02*
G75*
G03*
X15578200Y-13582795I-50000J0D01*
G01*
X15582200Y-11152795D02*
G75*
G03*
X15582200Y-11152795I-50000J0D01*
G01*
X15582200Y-13232795D02*
G75*
G03*
X15582200Y-13232795I-50000J0D01*
G01*
X15710700Y-10432795D02*
G75*
G03*
X15710700Y-10432795I-50000J0D01*
G01*
X15836200Y-11152795D02*
G75*
G03*
X15836200Y-11152795I-50000J0D01*
G01*
X15836200Y-13232795D02*
G75*
G03*
X15836200Y-13232795I-50000J0D01*
G01*
X15964700Y-10432795D02*
G75*
G03*
X15964700Y-10432795I-50000J0D01*
G01*
X16064200Y-9632795D02*
G75*
G03*
X16064200Y-9632795I-50000J0D01*
G01*
X16092200Y-11152795D02*
G75*
G03*
X16092200Y-11152795I-50000J0D01*
G01*
X16092200Y-13232795D02*
G75*
G03*
X16092200Y-13232795I-50000J0D01*
G01*
X16218700Y-10042795D02*
G75*
G03*
X16218700Y-10042795I-50000J0D01*
G01*
X16728200Y-9552795D02*
G75*
G03*
X16728200Y-9552795I-50000J0D01*
G01*
X17168200Y-9092795D02*
G75*
G03*
X17168200Y-9092795I-50000J0D01*
G01*
X17168200Y-11992795D02*
G75*
G03*
X17168200Y-11992795I-50000J0D01*
G01*
D11*
X12308200Y-8087445D02*
X12308200Y-8287445D01*
X12208200Y-8187445D02*
X12408200Y-8187445D01*
X12218200Y-8137445D02*
X12218200Y-8237445D01*
X12398200Y-8137445D02*
X12398200Y-8237445D01*
X12218200Y-8237445D02*
G75*
G03*
X12398200Y-8237445I90000J0D01*
G01*
X12398200Y-8137445D02*
G75*
G03*
X12218200Y-8137445I-90000J0D01*
G01*
X12808200Y-7637445D02*
X12808200Y-7837445D01*
X12708200Y-7737445D02*
X12908200Y-7737445D01*
X12858200Y-7647445D02*
X12758200Y-7647445D01*
X12858200Y-7827445D02*
X12758200Y-7827445D01*
X12758200Y-7647445D02*
G75*
G03*
X12758200Y-7827445I0J-90000D01*
G01*
X12858200Y-7827445D02*
G75*
G03*
X12858200Y-7647445I0J90000D01*
G01*
X12808200Y-8087445D02*
X12808200Y-8287445D01*
X12708200Y-8187445D02*
X12908200Y-8187445D01*
X13308200Y-8087445D02*
X13308200Y-8287445D01*
X13208200Y-8187445D02*
X13408200Y-8187445D01*
X13218200Y-8137445D02*
X13218200Y-8237445D01*
X13398200Y-8137445D02*
X13398200Y-8237445D01*
X13218200Y-8237445D02*
G75*
G03*
X13398200Y-8237445I90000J0D01*
G01*
X13398200Y-8137445D02*
G75*
G03*
X13218200Y-8137445I-90000J0D01*
G01*
X14848200Y-8087445D02*
X14848200Y-8287445D01*
X14748200Y-8187445D02*
X14948200Y-8187445D01*
X14758200Y-8137445D02*
X14758200Y-8237445D01*
X14938200Y-8137445D02*
X14938200Y-8237445D01*
X14758200Y-8237445D02*
G75*
G03*
X14938200Y-8237445I90000J0D01*
G01*
X14938200Y-8137445D02*
G75*
G03*
X14758200Y-8137445I-90000J0D01*
G01*
X15348200Y-7637445D02*
X15348200Y-7837445D01*
X15248200Y-7737445D02*
X15448200Y-7737445D01*
X15398200Y-7647445D02*
X15298200Y-7647445D01*
X15398200Y-7827445D02*
X15298200Y-7827445D01*
X15298200Y-7647445D02*
G75*
G03*
X15298200Y-7827445I0J-90000D01*
G01*
X15398200Y-7827445D02*
G75*
G03*
X15398200Y-7647445I0J90000D01*
G01*
X15348200Y-8087445D02*
X15348200Y-8287445D01*
X15248200Y-8187445D02*
X15448200Y-8187445D01*
X15848200Y-8087445D02*
X15848200Y-8287445D01*
X15748200Y-8187445D02*
X15948200Y-8187445D01*
X15758200Y-8137445D02*
X15758200Y-8237445D01*
X15938200Y-8137445D02*
X15938200Y-8237445D01*
X15758200Y-8237445D02*
G75*
G03*
X15938200Y-8237445I90000J0D01*
G01*
X15938200Y-8137445D02*
G75*
G03*
X15758200Y-8137445I-90000J0D01*
G01*
X11093914Y-14095176D02*
X11093914Y-13895176D01*
X11141533Y-13895176D01*
X11170105Y-13904700D01*
X11189152Y-13923748D01*
X11198676Y-13942795D01*
X11208200Y-13980890D01*
X11208200Y-14009462D01*
X11198676Y-14047557D01*
X11189152Y-14066605D01*
X11170105Y-14085652D01*
X11141533Y-14095176D01*
X11093914Y-14095176D01*
X11293914Y-14095176D02*
X11293914Y-13961843D01*
X11293914Y-13999938D02*
X11303438Y-13980890D01*
X11312962Y-13971367D01*
X11332009Y-13961843D01*
X11351057Y-13961843D01*
X11417723Y-14095176D02*
X11417723Y-13961843D01*
X11417723Y-13895176D02*
X11408200Y-13904700D01*
X11417723Y-13914224D01*
X11427247Y-13904700D01*
X11417723Y-13895176D01*
X11417723Y-13914224D01*
X11541533Y-14095176D02*
X11522485Y-14085652D01*
X11512962Y-14066605D01*
X11512962Y-13895176D01*
X11646295Y-14095176D02*
X11627247Y-14085652D01*
X11617723Y-14066605D01*
X11617723Y-13895176D01*
X11874866Y-14095176D02*
X11874866Y-13895176D01*
X11941533Y-14038033D01*
X12008200Y-13895176D01*
X12008200Y-14095176D01*
X12189152Y-14095176D02*
X12189152Y-13990414D01*
X12179628Y-13971367D01*
X12160581Y-13961843D01*
X12122485Y-13961843D01*
X12103438Y-13971367D01*
X12189152Y-14085652D02*
X12170104Y-14095176D01*
X12122485Y-14095176D01*
X12103438Y-14085652D01*
X12093914Y-14066605D01*
X12093914Y-14047557D01*
X12103438Y-14028509D01*
X12122485Y-14018986D01*
X12170104Y-14018986D01*
X12189152Y-14009462D01*
X12284390Y-13961843D02*
X12284390Y-14161843D01*
X12284390Y-13971367D02*
X12303438Y-13961843D01*
X12341533Y-13961843D01*
X12360581Y-13971367D01*
X12370104Y-13980890D01*
X12379628Y-13999938D01*
X12379628Y-14057081D01*
X12370104Y-14076128D01*
X12360581Y-14085652D01*
X12341533Y-14095176D01*
X12303438Y-14095176D01*
X12284390Y-14085652D01*
X12465343Y-14076128D02*
X12474866Y-14085652D01*
X12465343Y-14095176D01*
X12455819Y-14085652D01*
X12465343Y-14076128D01*
X12465343Y-14095176D01*
X12465343Y-13971367D02*
X12474866Y-13980890D01*
X12465343Y-13990414D01*
X12455819Y-13980890D01*
X12465343Y-13971367D01*
X12465343Y-13990414D01*
D12*
X10756295Y-14384700D02*
X10836295Y-14464700D01*
X10836295Y-14384700D02*
X10756295Y-14464700D01*
D11*
X11132009Y-14315176D02*
X11151057Y-14315176D01*
X11170105Y-14324700D01*
X11179628Y-14334224D01*
X11189152Y-14353271D01*
X11198676Y-14391367D01*
X11198676Y-14438986D01*
X11189152Y-14477081D01*
X11179628Y-14496128D01*
X11170105Y-14505652D01*
X11151057Y-14515176D01*
X11132009Y-14515176D01*
X11112962Y-14505652D01*
X11103438Y-14496128D01*
X11093914Y-14477081D01*
X11084390Y-14438986D01*
X11084390Y-14391367D01*
X11093914Y-14353271D01*
X11103438Y-14334224D01*
X11112962Y-14324700D01*
X11132009Y-14315176D01*
X11284390Y-14496128D02*
X11293914Y-14505652D01*
X11284390Y-14515176D01*
X11274866Y-14505652D01*
X11284390Y-14496128D01*
X11284390Y-14515176D01*
X11408200Y-14400890D02*
X11389152Y-14391367D01*
X11379628Y-14381843D01*
X11370104Y-14362795D01*
X11370104Y-14353271D01*
X11379628Y-14334224D01*
X11389152Y-14324700D01*
X11408200Y-14315176D01*
X11446295Y-14315176D01*
X11465343Y-14324700D01*
X11474866Y-14334224D01*
X11484390Y-14353271D01*
X11484390Y-14362795D01*
X11474866Y-14381843D01*
X11465343Y-14391367D01*
X11446295Y-14400890D01*
X11408200Y-14400890D01*
X11389152Y-14410414D01*
X11379628Y-14419938D01*
X11370104Y-14438986D01*
X11370104Y-14477081D01*
X11379628Y-14496128D01*
X11389152Y-14505652D01*
X11408200Y-14515176D01*
X11446295Y-14515176D01*
X11465343Y-14505652D01*
X11474866Y-14496128D01*
X11484390Y-14477081D01*
X11484390Y-14438986D01*
X11474866Y-14419938D01*
X11465343Y-14410414D01*
X11446295Y-14400890D01*
X11608200Y-14315176D02*
X11627247Y-14315176D01*
X11646295Y-14324700D01*
X11655819Y-14334224D01*
X11665343Y-14353271D01*
X11674866Y-14391367D01*
X11674866Y-14438986D01*
X11665343Y-14477081D01*
X11655819Y-14496128D01*
X11646295Y-14505652D01*
X11627247Y-14515176D01*
X11608200Y-14515176D01*
X11589152Y-14505652D01*
X11579628Y-14496128D01*
X11570104Y-14477081D01*
X11560581Y-14438986D01*
X11560581Y-14391367D01*
X11570104Y-14353271D01*
X11579628Y-14334224D01*
X11589152Y-14324700D01*
X11608200Y-14315176D01*
X11798676Y-14315176D02*
X11817723Y-14315176D01*
X11836771Y-14324700D01*
X11846295Y-14334224D01*
X11855819Y-14353271D01*
X11865343Y-14391367D01*
X11865343Y-14438986D01*
X11855819Y-14477081D01*
X11846295Y-14496128D01*
X11836771Y-14505652D01*
X11817723Y-14515176D01*
X11798676Y-14515176D01*
X11779628Y-14505652D01*
X11770104Y-14496128D01*
X11760581Y-14477081D01*
X11751057Y-14438986D01*
X11751057Y-14391367D01*
X11760581Y-14353271D01*
X11770104Y-14334224D01*
X11779628Y-14324700D01*
X11798676Y-14315176D01*
X11951057Y-14515176D02*
X11951057Y-14381843D01*
X11951057Y-14400890D02*
X11960581Y-14391367D01*
X11979628Y-14381843D01*
X12008200Y-14381843D01*
X12027247Y-14391367D01*
X12036771Y-14410414D01*
X12036771Y-14515176D01*
X12036771Y-14410414D02*
X12046295Y-14391367D01*
X12065343Y-14381843D01*
X12093914Y-14381843D01*
X12112962Y-14391367D01*
X12122485Y-14410414D01*
X12122485Y-14515176D01*
X12217723Y-14515176D02*
X12217723Y-14381843D01*
X12217723Y-14400890D02*
X12227247Y-14391367D01*
X12246295Y-14381843D01*
X12274866Y-14381843D01*
X12293914Y-14391367D01*
X12303438Y-14410414D01*
X12303438Y-14515176D01*
X12303438Y-14410414D02*
X12312962Y-14391367D01*
X12332009Y-14381843D01*
X12360581Y-14381843D01*
X12379628Y-14391367D01*
X12389152Y-14410414D01*
X12389152Y-14515176D01*
X12779628Y-14305652D02*
X12608200Y-14562795D01*
X13036771Y-14315176D02*
X13055819Y-14315176D01*
X13074866Y-14324700D01*
X13084390Y-14334224D01*
X13093914Y-14353271D01*
X13103438Y-14391367D01*
X13103438Y-14438986D01*
X13093914Y-14477081D01*
X13084390Y-14496128D01*
X13074866Y-14505652D01*
X13055819Y-14515176D01*
X13036771Y-14515176D01*
X13017723Y-14505652D01*
X13008200Y-14496128D01*
X12998676Y-14477081D01*
X12989152Y-14438986D01*
X12989152Y-14391367D01*
X12998676Y-14353271D01*
X13008200Y-14334224D01*
X13017723Y-14324700D01*
X13036771Y-14315176D01*
X13189152Y-14496128D02*
X13198676Y-14505652D01*
X13189152Y-14515176D01*
X13179628Y-14505652D01*
X13189152Y-14496128D01*
X13189152Y-14515176D01*
X13322485Y-14315176D02*
X13341533Y-14315176D01*
X13360581Y-14324700D01*
X13370104Y-14334224D01*
X13379628Y-14353271D01*
X13389152Y-14391367D01*
X13389152Y-14438986D01*
X13379628Y-14477081D01*
X13370104Y-14496128D01*
X13360581Y-14505652D01*
X13341533Y-14515176D01*
X13322485Y-14515176D01*
X13303438Y-14505652D01*
X13293914Y-14496128D01*
X13284390Y-14477081D01*
X13274866Y-14438986D01*
X13274866Y-14391367D01*
X13284390Y-14353271D01*
X13293914Y-14334224D01*
X13303438Y-14324700D01*
X13322485Y-14315176D01*
X13455819Y-14315176D02*
X13579628Y-14315176D01*
X13512962Y-14391367D01*
X13541533Y-14391367D01*
X13560581Y-14400890D01*
X13570104Y-14410414D01*
X13579628Y-14429462D01*
X13579628Y-14477081D01*
X13570104Y-14496128D01*
X13560581Y-14505652D01*
X13541533Y-14515176D01*
X13484390Y-14515176D01*
X13465343Y-14505652D01*
X13455819Y-14496128D01*
X13770104Y-14515176D02*
X13655819Y-14515176D01*
X13712962Y-14515176D02*
X13712962Y-14315176D01*
X13693914Y-14343748D01*
X13674866Y-14362795D01*
X13655819Y-14372319D01*
X13951057Y-14315176D02*
X13855819Y-14315176D01*
X13846295Y-14410414D01*
X13855819Y-14400890D01*
X13874866Y-14391367D01*
X13922485Y-14391367D01*
X13941533Y-14400890D01*
X13951057Y-14410414D01*
X13960581Y-14429462D01*
X13960581Y-14477081D01*
X13951057Y-14496128D01*
X13941533Y-14505652D01*
X13922485Y-14515176D01*
X13874866Y-14515176D01*
X13855819Y-14505652D01*
X13846295Y-14496128D01*
X14036771Y-14315176D02*
X14036771Y-14353271D01*
X14112962Y-14315176D02*
X14112962Y-14353271D01*
X14408200Y-14591367D02*
X14398676Y-14581843D01*
X14379628Y-14553271D01*
X14370104Y-14534224D01*
X14360581Y-14505652D01*
X14351057Y-14458033D01*
X14351057Y-14419938D01*
X14360581Y-14372319D01*
X14370104Y-14343748D01*
X14379628Y-14324700D01*
X14398676Y-14296128D01*
X14408200Y-14286605D01*
X14512962Y-14400890D02*
X14493914Y-14391367D01*
X14484390Y-14381843D01*
X14474866Y-14362795D01*
X14474866Y-14353271D01*
X14484390Y-14334224D01*
X14493914Y-14324700D01*
X14512962Y-14315176D01*
X14551057Y-14315176D01*
X14570104Y-14324700D01*
X14579628Y-14334224D01*
X14589152Y-14353271D01*
X14589152Y-14362795D01*
X14579628Y-14381843D01*
X14570104Y-14391367D01*
X14551057Y-14400890D01*
X14512962Y-14400890D01*
X14493914Y-14410414D01*
X14484390Y-14419938D01*
X14474866Y-14438986D01*
X14474866Y-14477081D01*
X14484390Y-14496128D01*
X14493914Y-14505652D01*
X14512962Y-14515176D01*
X14551057Y-14515176D01*
X14570104Y-14505652D01*
X14579628Y-14496128D01*
X14589152Y-14477081D01*
X14589152Y-14438986D01*
X14579628Y-14419938D01*
X14570104Y-14410414D01*
X14551057Y-14400890D01*
X14827247Y-14515176D02*
X14827247Y-14315176D01*
X14912962Y-14515176D02*
X14912962Y-14410414D01*
X14903438Y-14391367D01*
X14884390Y-14381843D01*
X14855819Y-14381843D01*
X14836771Y-14391367D01*
X14827247Y-14400890D01*
X15036771Y-14515176D02*
X15017723Y-14505652D01*
X15008200Y-14496128D01*
X14998676Y-14477081D01*
X14998676Y-14419938D01*
X15008200Y-14400890D01*
X15017723Y-14391367D01*
X15036771Y-14381843D01*
X15065343Y-14381843D01*
X15084390Y-14391367D01*
X15093914Y-14400890D01*
X15103438Y-14419938D01*
X15103438Y-14477081D01*
X15093914Y-14496128D01*
X15084390Y-14505652D01*
X15065343Y-14515176D01*
X15036771Y-14515176D01*
X15217723Y-14515176D02*
X15198676Y-14505652D01*
X15189152Y-14486605D01*
X15189152Y-14315176D01*
X15370104Y-14505652D02*
X15351057Y-14515176D01*
X15312962Y-14515176D01*
X15293914Y-14505652D01*
X15284390Y-14486605D01*
X15284390Y-14410414D01*
X15293914Y-14391367D01*
X15312962Y-14381843D01*
X15351057Y-14381843D01*
X15370104Y-14391367D01*
X15379628Y-14410414D01*
X15379628Y-14429462D01*
X15284390Y-14448509D01*
X15455819Y-14505652D02*
X15474866Y-14515176D01*
X15512962Y-14515176D01*
X15532009Y-14505652D01*
X15541533Y-14486605D01*
X15541533Y-14477081D01*
X15532009Y-14458033D01*
X15512962Y-14448509D01*
X15484390Y-14448509D01*
X15465343Y-14438986D01*
X15455819Y-14419938D01*
X15455819Y-14410414D01*
X15465343Y-14391367D01*
X15484390Y-14381843D01*
X15512962Y-14381843D01*
X15532009Y-14391367D01*
X15608200Y-14591367D02*
X15617723Y-14581843D01*
X15636771Y-14553271D01*
X15646295Y-14534224D01*
X15655819Y-14505652D01*
X15665343Y-14458033D01*
X15665343Y-14419938D01*
X15655819Y-14372319D01*
X15646295Y-14343748D01*
X15636771Y-14324700D01*
X15617723Y-14296128D01*
X15608200Y-14286605D01*
D13*
X10836295Y-14688700D02*
G75*
G03*
X10836295Y-14688700I-50000J0D01*
G01*
D11*
X11198676Y-14779176D02*
X11084390Y-14779176D01*
X11141533Y-14779176D02*
X11141533Y-14579176D01*
X11122485Y-14607748D01*
X11103438Y-14626795D01*
X11084390Y-14636319D01*
X11284390Y-14760128D02*
X11293914Y-14769652D01*
X11284390Y-14779176D01*
X11274866Y-14769652D01*
X11284390Y-14760128D01*
X11284390Y-14779176D01*
X11417723Y-14579176D02*
X11436771Y-14579176D01*
X11455819Y-14588700D01*
X11465343Y-14598224D01*
X11474866Y-14617271D01*
X11484390Y-14655367D01*
X11484390Y-14702986D01*
X11474866Y-14741081D01*
X11465343Y-14760128D01*
X11455819Y-14769652D01*
X11436771Y-14779176D01*
X11417723Y-14779176D01*
X11398676Y-14769652D01*
X11389152Y-14760128D01*
X11379628Y-14741081D01*
X11370104Y-14702986D01*
X11370104Y-14655367D01*
X11379628Y-14617271D01*
X11389152Y-14598224D01*
X11398676Y-14588700D01*
X11417723Y-14579176D01*
X11608200Y-14579176D02*
X11627247Y-14579176D01*
X11646295Y-14588700D01*
X11655819Y-14598224D01*
X11665343Y-14617271D01*
X11674866Y-14655367D01*
X11674866Y-14702986D01*
X11665343Y-14741081D01*
X11655819Y-14760128D01*
X11646295Y-14769652D01*
X11627247Y-14779176D01*
X11608200Y-14779176D01*
X11589152Y-14769652D01*
X11579628Y-14760128D01*
X11570104Y-14741081D01*
X11560581Y-14702986D01*
X11560581Y-14655367D01*
X11570104Y-14617271D01*
X11579628Y-14598224D01*
X11589152Y-14588700D01*
X11608200Y-14579176D01*
X11798676Y-14579176D02*
X11817723Y-14579176D01*
X11836771Y-14588700D01*
X11846295Y-14598224D01*
X11855819Y-14617271D01*
X11865343Y-14655367D01*
X11865343Y-14702986D01*
X11855819Y-14741081D01*
X11846295Y-14760128D01*
X11836771Y-14769652D01*
X11817723Y-14779176D01*
X11798676Y-14779176D01*
X11779628Y-14769652D01*
X11770104Y-14760128D01*
X11760581Y-14741081D01*
X11751057Y-14702986D01*
X11751057Y-14655367D01*
X11760581Y-14617271D01*
X11770104Y-14598224D01*
X11779628Y-14588700D01*
X11798676Y-14579176D01*
X11951057Y-14779176D02*
X11951057Y-14645843D01*
X11951057Y-14664890D02*
X11960581Y-14655367D01*
X11979628Y-14645843D01*
X12008200Y-14645843D01*
X12027247Y-14655367D01*
X12036771Y-14674414D01*
X12036771Y-14779176D01*
X12036771Y-14674414D02*
X12046295Y-14655367D01*
X12065343Y-14645843D01*
X12093914Y-14645843D01*
X12112962Y-14655367D01*
X12122485Y-14674414D01*
X12122485Y-14779176D01*
X12217723Y-14779176D02*
X12217723Y-14645843D01*
X12217723Y-14664890D02*
X12227247Y-14655367D01*
X12246295Y-14645843D01*
X12274866Y-14645843D01*
X12293914Y-14655367D01*
X12303438Y-14674414D01*
X12303438Y-14779176D01*
X12303438Y-14674414D02*
X12312962Y-14655367D01*
X12332009Y-14645843D01*
X12360581Y-14645843D01*
X12379628Y-14655367D01*
X12389152Y-14674414D01*
X12389152Y-14779176D01*
X12779628Y-14569652D02*
X12608200Y-14826795D01*
X13036771Y-14579176D02*
X13055819Y-14579176D01*
X13074866Y-14588700D01*
X13084390Y-14598224D01*
X13093914Y-14617271D01*
X13103438Y-14655367D01*
X13103438Y-14702986D01*
X13093914Y-14741081D01*
X13084390Y-14760128D01*
X13074866Y-14769652D01*
X13055819Y-14779176D01*
X13036771Y-14779176D01*
X13017723Y-14769652D01*
X13008200Y-14760128D01*
X12998676Y-14741081D01*
X12989152Y-14702986D01*
X12989152Y-14655367D01*
X12998676Y-14617271D01*
X13008200Y-14598224D01*
X13017723Y-14588700D01*
X13036771Y-14579176D01*
X13189152Y-14760128D02*
X13198676Y-14769652D01*
X13189152Y-14779176D01*
X13179628Y-14769652D01*
X13189152Y-14760128D01*
X13189152Y-14779176D01*
X13322485Y-14579176D02*
X13341533Y-14579176D01*
X13360581Y-14588700D01*
X13370104Y-14598224D01*
X13379628Y-14617271D01*
X13389152Y-14655367D01*
X13389152Y-14702986D01*
X13379628Y-14741081D01*
X13370104Y-14760128D01*
X13360581Y-14769652D01*
X13341533Y-14779176D01*
X13322485Y-14779176D01*
X13303438Y-14769652D01*
X13293914Y-14760128D01*
X13284390Y-14741081D01*
X13274866Y-14702986D01*
X13274866Y-14655367D01*
X13284390Y-14617271D01*
X13293914Y-14598224D01*
X13303438Y-14588700D01*
X13322485Y-14579176D01*
X13455819Y-14579176D02*
X13579628Y-14579176D01*
X13512962Y-14655367D01*
X13541533Y-14655367D01*
X13560581Y-14664890D01*
X13570104Y-14674414D01*
X13579628Y-14693462D01*
X13579628Y-14741081D01*
X13570104Y-14760128D01*
X13560581Y-14769652D01*
X13541533Y-14779176D01*
X13484390Y-14779176D01*
X13465343Y-14769652D01*
X13455819Y-14760128D01*
X13674866Y-14779176D02*
X13712962Y-14779176D01*
X13732009Y-14769652D01*
X13741533Y-14760128D01*
X13760581Y-14731557D01*
X13770104Y-14693462D01*
X13770104Y-14617271D01*
X13760581Y-14598224D01*
X13751057Y-14588700D01*
X13732009Y-14579176D01*
X13693914Y-14579176D01*
X13674866Y-14588700D01*
X13665343Y-14598224D01*
X13655819Y-14617271D01*
X13655819Y-14664890D01*
X13665343Y-14683938D01*
X13674866Y-14693462D01*
X13693914Y-14702986D01*
X13732009Y-14702986D01*
X13751057Y-14693462D01*
X13760581Y-14683938D01*
X13770104Y-14664890D01*
X13941533Y-14645843D02*
X13941533Y-14779176D01*
X13893914Y-14569652D02*
X13846295Y-14712509D01*
X13970104Y-14712509D01*
X14036771Y-14579176D02*
X14036771Y-14617271D01*
X14112962Y-14579176D02*
X14112962Y-14617271D01*
X14408200Y-14855367D02*
X14398676Y-14845843D01*
X14379628Y-14817271D01*
X14370104Y-14798224D01*
X14360581Y-14769652D01*
X14351057Y-14722033D01*
X14351057Y-14683938D01*
X14360581Y-14636319D01*
X14370104Y-14607748D01*
X14379628Y-14588700D01*
X14398676Y-14560128D01*
X14408200Y-14550605D01*
X14570104Y-14645843D02*
X14570104Y-14779176D01*
X14522485Y-14569652D02*
X14474866Y-14712509D01*
X14598676Y-14712509D01*
X14779628Y-14779176D02*
X14665343Y-14779176D01*
X14722485Y-14779176D02*
X14722485Y-14579176D01*
X14703438Y-14607748D01*
X14684390Y-14626795D01*
X14665343Y-14636319D01*
X15017723Y-14779176D02*
X15017723Y-14579176D01*
X15103438Y-14779176D02*
X15103438Y-14674414D01*
X15093914Y-14655367D01*
X15074866Y-14645843D01*
X15046295Y-14645843D01*
X15027247Y-14655367D01*
X15017723Y-14664890D01*
X15227247Y-14779176D02*
X15208200Y-14769652D01*
X15198676Y-14760128D01*
X15189152Y-14741081D01*
X15189152Y-14683938D01*
X15198676Y-14664890D01*
X15208200Y-14655367D01*
X15227247Y-14645843D01*
X15255819Y-14645843D01*
X15274866Y-14655367D01*
X15284390Y-14664890D01*
X15293914Y-14683938D01*
X15293914Y-14741081D01*
X15284390Y-14760128D01*
X15274866Y-14769652D01*
X15255819Y-14779176D01*
X15227247Y-14779176D01*
X15408200Y-14779176D02*
X15389152Y-14769652D01*
X15379628Y-14750605D01*
X15379628Y-14579176D01*
X15560581Y-14769652D02*
X15541533Y-14779176D01*
X15503438Y-14779176D01*
X15484390Y-14769652D01*
X15474866Y-14750605D01*
X15474866Y-14674414D01*
X15484390Y-14655367D01*
X15503438Y-14645843D01*
X15541533Y-14645843D01*
X15560581Y-14655367D01*
X15570104Y-14674414D01*
X15570104Y-14693462D01*
X15474866Y-14712509D01*
X15646295Y-14769652D02*
X15665343Y-14779176D01*
X15703438Y-14779176D01*
X15722485Y-14769652D01*
X15732009Y-14750605D01*
X15732009Y-14741081D01*
X15722485Y-14722033D01*
X15703438Y-14712509D01*
X15674866Y-14712509D01*
X15655819Y-14702986D01*
X15646295Y-14683938D01*
X15646295Y-14674414D01*
X15655819Y-14655367D01*
X15674866Y-14645843D01*
X15703438Y-14645843D01*
X15722485Y-14655367D01*
X15798676Y-14855367D02*
X15808200Y-14845843D01*
X15827247Y-14817271D01*
X15836771Y-14798224D01*
X15846295Y-14769652D01*
X15855819Y-14722033D01*
X15855819Y-14683938D01*
X15846295Y-14636319D01*
X15836771Y-14607748D01*
X15827247Y-14588700D01*
X15808200Y-14560128D01*
X15798676Y-14550605D01*
X10736295Y-14852700D02*
X10736295Y-15052700D01*
X10636295Y-14952700D02*
X10836295Y-14952700D01*
X11084390Y-14862224D02*
X11093914Y-14852700D01*
X11112962Y-14843176D01*
X11160581Y-14843176D01*
X11179628Y-14852700D01*
X11189152Y-14862224D01*
X11198676Y-14881271D01*
X11198676Y-14900319D01*
X11189152Y-14928890D01*
X11074866Y-15043176D01*
X11198676Y-15043176D01*
X11284390Y-15024128D02*
X11293914Y-15033652D01*
X11284390Y-15043176D01*
X11274866Y-15033652D01*
X11284390Y-15024128D01*
X11284390Y-15043176D01*
X11417723Y-14843176D02*
X11436771Y-14843176D01*
X11455819Y-14852700D01*
X11465343Y-14862224D01*
X11474866Y-14881271D01*
X11484390Y-14919367D01*
X11484390Y-14966986D01*
X11474866Y-15005081D01*
X11465343Y-15024128D01*
X11455819Y-15033652D01*
X11436771Y-15043176D01*
X11417723Y-15043176D01*
X11398676Y-15033652D01*
X11389152Y-15024128D01*
X11379628Y-15005081D01*
X11370104Y-14966986D01*
X11370104Y-14919367D01*
X11379628Y-14881271D01*
X11389152Y-14862224D01*
X11398676Y-14852700D01*
X11417723Y-14843176D01*
X11608200Y-14843176D02*
X11627247Y-14843176D01*
X11646295Y-14852700D01*
X11655819Y-14862224D01*
X11665343Y-14881271D01*
X11674866Y-14919367D01*
X11674866Y-14966986D01*
X11665343Y-15005081D01*
X11655819Y-15024128D01*
X11646295Y-15033652D01*
X11627247Y-15043176D01*
X11608200Y-15043176D01*
X11589152Y-15033652D01*
X11579628Y-15024128D01*
X11570104Y-15005081D01*
X11560581Y-14966986D01*
X11560581Y-14919367D01*
X11570104Y-14881271D01*
X11579628Y-14862224D01*
X11589152Y-14852700D01*
X11608200Y-14843176D01*
X11798676Y-14843176D02*
X11817723Y-14843176D01*
X11836771Y-14852700D01*
X11846295Y-14862224D01*
X11855819Y-14881271D01*
X11865343Y-14919367D01*
X11865343Y-14966986D01*
X11855819Y-15005081D01*
X11846295Y-15024128D01*
X11836771Y-15033652D01*
X11817723Y-15043176D01*
X11798676Y-15043176D01*
X11779628Y-15033652D01*
X11770104Y-15024128D01*
X11760581Y-15005081D01*
X11751057Y-14966986D01*
X11751057Y-14919367D01*
X11760581Y-14881271D01*
X11770104Y-14862224D01*
X11779628Y-14852700D01*
X11798676Y-14843176D01*
X11951057Y-15043176D02*
X11951057Y-14909843D01*
X11951057Y-14928890D02*
X11960581Y-14919367D01*
X11979628Y-14909843D01*
X12008200Y-14909843D01*
X12027247Y-14919367D01*
X12036771Y-14938414D01*
X12036771Y-15043176D01*
X12036771Y-14938414D02*
X12046295Y-14919367D01*
X12065343Y-14909843D01*
X12093914Y-14909843D01*
X12112962Y-14919367D01*
X12122485Y-14938414D01*
X12122485Y-15043176D01*
X12217723Y-15043176D02*
X12217723Y-14909843D01*
X12217723Y-14928890D02*
X12227247Y-14919367D01*
X12246295Y-14909843D01*
X12274866Y-14909843D01*
X12293914Y-14919367D01*
X12303438Y-14938414D01*
X12303438Y-15043176D01*
X12303438Y-14938414D02*
X12312962Y-14919367D01*
X12332009Y-14909843D01*
X12360581Y-14909843D01*
X12379628Y-14919367D01*
X12389152Y-14938414D01*
X12389152Y-15043176D01*
X12779628Y-14833652D02*
X12608200Y-15090795D01*
X13036771Y-14843176D02*
X13055819Y-14843176D01*
X13074866Y-14852700D01*
X13084390Y-14862224D01*
X13093914Y-14881271D01*
X13103438Y-14919367D01*
X13103438Y-14966986D01*
X13093914Y-15005081D01*
X13084390Y-15024128D01*
X13074866Y-15033652D01*
X13055819Y-15043176D01*
X13036771Y-15043176D01*
X13017723Y-15033652D01*
X13008200Y-15024128D01*
X12998676Y-15005081D01*
X12989152Y-14966986D01*
X12989152Y-14919367D01*
X12998676Y-14881271D01*
X13008200Y-14862224D01*
X13017723Y-14852700D01*
X13036771Y-14843176D01*
X13189152Y-15024128D02*
X13198676Y-15033652D01*
X13189152Y-15043176D01*
X13179628Y-15033652D01*
X13189152Y-15024128D01*
X13189152Y-15043176D01*
X13322485Y-14843176D02*
X13341533Y-14843176D01*
X13360581Y-14852700D01*
X13370104Y-14862224D01*
X13379628Y-14881271D01*
X13389152Y-14919367D01*
X13389152Y-14966986D01*
X13379628Y-15005081D01*
X13370104Y-15024128D01*
X13360581Y-15033652D01*
X13341533Y-15043176D01*
X13322485Y-15043176D01*
X13303438Y-15033652D01*
X13293914Y-15024128D01*
X13284390Y-15005081D01*
X13274866Y-14966986D01*
X13274866Y-14919367D01*
X13284390Y-14881271D01*
X13293914Y-14862224D01*
X13303438Y-14852700D01*
X13322485Y-14843176D01*
X13455819Y-14843176D02*
X13589152Y-14843176D01*
X13503438Y-15043176D01*
X13693914Y-14928890D02*
X13674866Y-14919367D01*
X13665343Y-14909843D01*
X13655819Y-14890795D01*
X13655819Y-14881271D01*
X13665343Y-14862224D01*
X13674866Y-14852700D01*
X13693914Y-14843176D01*
X13732009Y-14843176D01*
X13751057Y-14852700D01*
X13760581Y-14862224D01*
X13770104Y-14881271D01*
X13770104Y-14890795D01*
X13760581Y-14909843D01*
X13751057Y-14919367D01*
X13732009Y-14928890D01*
X13693914Y-14928890D01*
X13674866Y-14938414D01*
X13665343Y-14947938D01*
X13655819Y-14966986D01*
X13655819Y-15005081D01*
X13665343Y-15024128D01*
X13674866Y-15033652D01*
X13693914Y-15043176D01*
X13732009Y-15043176D01*
X13751057Y-15033652D01*
X13760581Y-15024128D01*
X13770104Y-15005081D01*
X13770104Y-14966986D01*
X13760581Y-14947938D01*
X13751057Y-14938414D01*
X13732009Y-14928890D01*
X13836771Y-14843176D02*
X13970104Y-14843176D01*
X13884390Y-15043176D01*
X14036771Y-14843176D02*
X14036771Y-14881271D01*
X14112962Y-14843176D02*
X14112962Y-14881271D01*
X14408200Y-15119367D02*
X14398676Y-15109843D01*
X14379628Y-15081271D01*
X14370104Y-15062224D01*
X14360581Y-15033652D01*
X14351057Y-14986033D01*
X14351057Y-14947938D01*
X14360581Y-14900319D01*
X14370104Y-14871748D01*
X14379628Y-14852700D01*
X14398676Y-14824128D01*
X14408200Y-14814605D01*
X14474866Y-14862224D02*
X14484390Y-14852700D01*
X14503438Y-14843176D01*
X14551057Y-14843176D01*
X14570104Y-14852700D01*
X14579628Y-14862224D01*
X14589152Y-14881271D01*
X14589152Y-14900319D01*
X14579628Y-14928890D01*
X14465343Y-15043176D01*
X14589152Y-15043176D01*
X14827247Y-15043176D02*
X14827247Y-14843176D01*
X14912962Y-15043176D02*
X14912962Y-14938414D01*
X14903438Y-14919367D01*
X14884390Y-14909843D01*
X14855819Y-14909843D01*
X14836771Y-14919367D01*
X14827247Y-14928890D01*
X15036771Y-15043176D02*
X15017723Y-15033652D01*
X15008200Y-15024128D01*
X14998676Y-15005081D01*
X14998676Y-14947938D01*
X15008200Y-14928890D01*
X15017723Y-14919367D01*
X15036771Y-14909843D01*
X15065343Y-14909843D01*
X15084390Y-14919367D01*
X15093914Y-14928890D01*
X15103438Y-14947938D01*
X15103438Y-15005081D01*
X15093914Y-15024128D01*
X15084390Y-15033652D01*
X15065343Y-15043176D01*
X15036771Y-15043176D01*
X15217723Y-15043176D02*
X15198676Y-15033652D01*
X15189152Y-15014605D01*
X15189152Y-14843176D01*
X15370104Y-15033652D02*
X15351057Y-15043176D01*
X15312962Y-15043176D01*
X15293914Y-15033652D01*
X15284390Y-15014605D01*
X15284390Y-14938414D01*
X15293914Y-14919367D01*
X15312962Y-14909843D01*
X15351057Y-14909843D01*
X15370104Y-14919367D01*
X15379628Y-14938414D01*
X15379628Y-14957462D01*
X15284390Y-14976509D01*
X15455819Y-15033652D02*
X15474866Y-15043176D01*
X15512962Y-15043176D01*
X15532009Y-15033652D01*
X15541533Y-15014605D01*
X15541533Y-15005081D01*
X15532009Y-14986033D01*
X15512962Y-14976509D01*
X15484390Y-14976509D01*
X15465343Y-14966986D01*
X15455819Y-14947938D01*
X15455819Y-14938414D01*
X15465343Y-14919367D01*
X15484390Y-14909843D01*
X15512962Y-14909843D01*
X15532009Y-14919367D01*
X15779628Y-14966986D02*
X15932009Y-14966986D01*
X15855819Y-15043176D02*
X15855819Y-14890795D01*
X16265343Y-14843176D02*
X16227247Y-14843176D01*
X16208200Y-14852700D01*
X16198676Y-14862224D01*
X16179628Y-14890795D01*
X16170104Y-14928890D01*
X16170104Y-15005081D01*
X16179628Y-15024128D01*
X16189152Y-15033652D01*
X16208200Y-15043176D01*
X16246295Y-15043176D01*
X16265343Y-15033652D01*
X16274866Y-15024128D01*
X16284390Y-15005081D01*
X16284390Y-14957462D01*
X16274866Y-14938414D01*
X16265343Y-14928890D01*
X16246295Y-14919367D01*
X16208200Y-14919367D01*
X16189152Y-14928890D01*
X16179628Y-14938414D01*
X16170104Y-14957462D01*
X16512962Y-15033652D02*
X16532009Y-15043176D01*
X16570104Y-15043176D01*
X16589152Y-15033652D01*
X16598676Y-15014605D01*
X16598676Y-15005081D01*
X16589152Y-14986033D01*
X16570104Y-14976509D01*
X16541533Y-14976509D01*
X16522485Y-14966986D01*
X16512962Y-14947938D01*
X16512962Y-14938414D01*
X16522485Y-14919367D01*
X16541533Y-14909843D01*
X16570104Y-14909843D01*
X16589152Y-14919367D01*
X16712962Y-15043176D02*
X16693914Y-15033652D01*
X16684390Y-15014605D01*
X16684390Y-14843176D01*
X16817724Y-15043176D02*
X16798676Y-15033652D01*
X16789152Y-15024128D01*
X16779628Y-15005081D01*
X16779628Y-14947938D01*
X16789152Y-14928890D01*
X16798676Y-14919367D01*
X16817724Y-14909843D01*
X16846295Y-14909843D01*
X16865343Y-14919367D01*
X16874866Y-14928890D01*
X16884390Y-14947938D01*
X16884390Y-15005081D01*
X16874866Y-15024128D01*
X16865343Y-15033652D01*
X16846295Y-15043176D01*
X16817724Y-15043176D01*
X16941533Y-14909843D02*
X17017724Y-14909843D01*
X16970105Y-14843176D02*
X16970105Y-15014605D01*
X16979628Y-15033652D01*
X16998676Y-15043176D01*
X17017724Y-15043176D01*
X17074866Y-15033652D02*
X17093914Y-15043176D01*
X17132009Y-15043176D01*
X17151057Y-15033652D01*
X17160581Y-15014605D01*
X17160581Y-15005081D01*
X17151057Y-14986033D01*
X17132009Y-14976509D01*
X17103438Y-14976509D01*
X17084390Y-14966986D01*
X17074866Y-14947938D01*
X17074866Y-14938414D01*
X17084390Y-14919367D01*
X17103438Y-14909843D01*
X17132009Y-14909843D01*
X17151057Y-14919367D01*
X17227247Y-15119367D02*
X17236771Y-15109843D01*
X17255819Y-15081271D01*
X17265343Y-15062224D01*
X17274866Y-15033652D01*
X17284390Y-14986033D01*
X17284390Y-14947938D01*
X17274866Y-14900319D01*
X17265343Y-14871748D01*
X17255819Y-14852700D01*
X17236771Y-14824128D01*
X17227247Y-14814605D01*
M02*
