G04 #@! TF.GenerationSoftware,KiCad,Pcbnew,(5.1.10)-1*
G04 #@! TF.CreationDate,2021-05-27T20:09:30-04:00*
G04 #@! TF.ProjectId,C64-Composite-Modulator,4336342d-436f-46d7-906f-736974652d4d,1*
G04 #@! TF.SameCoordinates,Original*
G04 #@! TF.FileFunction,Legend,Bot*
G04 #@! TF.FilePolarity,Positive*
%FSLAX46Y46*%
G04 Gerber Fmt 4.6, Leading zero omitted, Abs format (unit mm)*
G04 Created by KiCad (PCBNEW (5.1.10)-1) date 2021-05-27 20:09:30*
%MOMM*%
%LPD*%
G01*
G04 APERTURE LIST*
%ADD10C,0.152400*%
%ADD11C,0.120000*%
%ADD12C,0.150000*%
%ADD13C,3.616000*%
%ADD14C,2.550000*%
%ADD15R,1.700000X1.700000*%
%ADD16O,1.700000X1.700000*%
%ADD17C,1.200000*%
%ADD18O,1.308000X2.616000*%
%ADD19O,2.616000X1.308000*%
%ADD20R,1.000000X1.000000*%
%ADD21R,0.500000X0.500000*%
%ADD22R,0.800000X0.900000*%
%ADD23C,1.440000*%
%ADD24R,0.900000X1.300000*%
G04 APERTURE END LIST*
D10*
X116897000Y-90649378D02*
G75*
G03*
X116897000Y-90649378I-50000J0D01*
G01*
X116897000Y-89394614D02*
G75*
G03*
X116897000Y-89394614I-50000J0D01*
G01*
X116897000Y-90335687D02*
G75*
G03*
X116897000Y-90335687I-50000J0D01*
G01*
X116897000Y-90021996D02*
G75*
G03*
X116897000Y-90021996I-50000J0D01*
G01*
X116897000Y-88767232D02*
G75*
G03*
X116897000Y-88767232I-50000J0D01*
G01*
X116897000Y-91590451D02*
G75*
G03*
X116897000Y-91590451I-50000J0D01*
G01*
X116897000Y-89708305D02*
G75*
G03*
X116897000Y-89708305I-50000J0D01*
G01*
X116897000Y-91276760D02*
G75*
G03*
X116897000Y-91276760I-50000J0D01*
G01*
X116897000Y-89080923D02*
G75*
G03*
X116897000Y-89080923I-50000J0D01*
G01*
X116897000Y-90963069D02*
G75*
G03*
X116897000Y-90963069I-50000J0D01*
G01*
X116897000Y-88453541D02*
G75*
G03*
X116897000Y-88453541I-50000J0D01*
G01*
X164797000Y-88717232D02*
G75*
G03*
X164797000Y-88717232I-50000J0D01*
G01*
X164797000Y-89658305D02*
G75*
G03*
X164797000Y-89658305I-50000J0D01*
G01*
X164797000Y-89344614D02*
G75*
G03*
X164797000Y-89344614I-50000J0D01*
G01*
X164797000Y-90913069D02*
G75*
G03*
X164797000Y-90913069I-50000J0D01*
G01*
X164797000Y-90599378D02*
G75*
G03*
X164797000Y-90599378I-50000J0D01*
G01*
X164797000Y-91226760D02*
G75*
G03*
X164797000Y-91226760I-50000J0D01*
G01*
X164797000Y-90285687D02*
G75*
G03*
X164797000Y-90285687I-50000J0D01*
G01*
X164797000Y-89030923D02*
G75*
G03*
X164797000Y-89030923I-50000J0D01*
G01*
X164797000Y-91540451D02*
G75*
G03*
X164797000Y-91540451I-50000J0D01*
G01*
X164797000Y-89971996D02*
G75*
G03*
X164797000Y-89971996I-50000J0D01*
G01*
X164797000Y-88403541D02*
G75*
G03*
X164797000Y-88403541I-50000J0D01*
G01*
X127538550Y-114997000D02*
G75*
G03*
X127538550Y-114997000I-50000J0D01*
G01*
X128444394Y-114997000D02*
G75*
G03*
X128444394Y-114997000I-50000J0D01*
G01*
X128746342Y-114997000D02*
G75*
G03*
X128746342Y-114997000I-50000J0D01*
G01*
X124217122Y-114997000D02*
G75*
G03*
X124217122Y-114997000I-50000J0D01*
G01*
X120593746Y-114997000D02*
G75*
G03*
X120593746Y-114997000I-50000J0D01*
G01*
X123009330Y-114997000D02*
G75*
G03*
X123009330Y-114997000I-50000J0D01*
G01*
X125122966Y-114997000D02*
G75*
G03*
X125122966Y-114997000I-50000J0D01*
G01*
X122103486Y-114997000D02*
G75*
G03*
X122103486Y-114997000I-50000J0D01*
G01*
X120895694Y-114997000D02*
G75*
G03*
X120895694Y-114997000I-50000J0D01*
G01*
X127236602Y-114997000D02*
G75*
G03*
X127236602Y-114997000I-50000J0D01*
G01*
X126632706Y-114997000D02*
G75*
G03*
X126632706Y-114997000I-50000J0D01*
G01*
X129048290Y-114997000D02*
G75*
G03*
X129048290Y-114997000I-50000J0D01*
G01*
X126934654Y-114997000D02*
G75*
G03*
X126934654Y-114997000I-50000J0D01*
G01*
X127840498Y-114997000D02*
G75*
G03*
X127840498Y-114997000I-50000J0D01*
G01*
X123311278Y-114997000D02*
G75*
G03*
X123311278Y-114997000I-50000J0D01*
G01*
X123915174Y-114997000D02*
G75*
G03*
X123915174Y-114997000I-50000J0D01*
G01*
X129652186Y-114997000D02*
G75*
G03*
X129652186Y-114997000I-50000J0D01*
G01*
X121499590Y-114997000D02*
G75*
G03*
X121499590Y-114997000I-50000J0D01*
G01*
X122707382Y-114997000D02*
G75*
G03*
X122707382Y-114997000I-50000J0D01*
G01*
X126028810Y-114997000D02*
G75*
G03*
X126028810Y-114997000I-50000J0D01*
G01*
X124519070Y-114997000D02*
G75*
G03*
X124519070Y-114997000I-50000J0D01*
G01*
X123613226Y-114997000D02*
G75*
G03*
X123613226Y-114997000I-50000J0D01*
G01*
X128142446Y-114997000D02*
G75*
G03*
X128142446Y-114997000I-50000J0D01*
G01*
X125424914Y-114997000D02*
G75*
G03*
X125424914Y-114997000I-50000J0D01*
G01*
X122405434Y-114997000D02*
G75*
G03*
X122405434Y-114997000I-50000J0D01*
G01*
X121801538Y-114997000D02*
G75*
G03*
X121801538Y-114997000I-50000J0D01*
G01*
X129350238Y-114997000D02*
G75*
G03*
X129350238Y-114997000I-50000J0D01*
G01*
X121197642Y-114997000D02*
G75*
G03*
X121197642Y-114997000I-50000J0D01*
G01*
X120291798Y-114997000D02*
G75*
G03*
X120291798Y-114997000I-50000J0D01*
G01*
X125726862Y-114997000D02*
G75*
G03*
X125726862Y-114997000I-50000J0D01*
G01*
X126330758Y-114997000D02*
G75*
G03*
X126330758Y-114997000I-50000J0D01*
G01*
X124821018Y-114997000D02*
G75*
G03*
X124821018Y-114997000I-50000J0D01*
G01*
X161402186Y-114997000D02*
G75*
G03*
X161402186Y-114997000I-50000J0D01*
G01*
X158986602Y-114997000D02*
G75*
G03*
X158986602Y-114997000I-50000J0D01*
G01*
X155967122Y-114997000D02*
G75*
G03*
X155967122Y-114997000I-50000J0D01*
G01*
X161100238Y-114997000D02*
G75*
G03*
X161100238Y-114997000I-50000J0D01*
G01*
X157174914Y-114997000D02*
G75*
G03*
X157174914Y-114997000I-50000J0D01*
G01*
X156269070Y-114997000D02*
G75*
G03*
X156269070Y-114997000I-50000J0D01*
G01*
X155363226Y-114997000D02*
G75*
G03*
X155363226Y-114997000I-50000J0D01*
G01*
X159892446Y-114997000D02*
G75*
G03*
X159892446Y-114997000I-50000J0D01*
G01*
X160496342Y-114997000D02*
G75*
G03*
X160496342Y-114997000I-50000J0D01*
G01*
X159288550Y-114997000D02*
G75*
G03*
X159288550Y-114997000I-50000J0D01*
G01*
X116897000Y-120963069D02*
G75*
G03*
X116897000Y-120963069I-50000J0D01*
G01*
X164797000Y-120913069D02*
G75*
G03*
X164797000Y-120913069I-50000J0D01*
G01*
X116897000Y-118453541D02*
G75*
G03*
X116897000Y-118453541I-50000J0D01*
G01*
X164797000Y-119030923D02*
G75*
G03*
X164797000Y-119030923I-50000J0D01*
G01*
X164797000Y-119344614D02*
G75*
G03*
X164797000Y-119344614I-50000J0D01*
G01*
X164797000Y-119658305D02*
G75*
G03*
X164797000Y-119658305I-50000J0D01*
G01*
X116897000Y-120021996D02*
G75*
G03*
X116897000Y-120021996I-50000J0D01*
G01*
X116897000Y-118767232D02*
G75*
G03*
X116897000Y-118767232I-50000J0D01*
G01*
X164797000Y-120285687D02*
G75*
G03*
X164797000Y-120285687I-50000J0D01*
G01*
X164797000Y-121226760D02*
G75*
G03*
X164797000Y-121226760I-50000J0D01*
G01*
X164797000Y-120599378D02*
G75*
G03*
X164797000Y-120599378I-50000J0D01*
G01*
X116897000Y-119708305D02*
G75*
G03*
X116897000Y-119708305I-50000J0D01*
G01*
X164797000Y-121540451D02*
G75*
G03*
X164797000Y-121540451I-50000J0D01*
G01*
X164797000Y-118403541D02*
G75*
G03*
X164797000Y-118403541I-50000J0D01*
G01*
X116897000Y-119394614D02*
G75*
G03*
X116897000Y-119394614I-50000J0D01*
G01*
X164797000Y-119971996D02*
G75*
G03*
X164797000Y-119971996I-50000J0D01*
G01*
X164797000Y-118717232D02*
G75*
G03*
X164797000Y-118717232I-50000J0D01*
G01*
X116897000Y-120649378D02*
G75*
G03*
X116897000Y-120649378I-50000J0D01*
G01*
X116897000Y-120335687D02*
G75*
G03*
X116897000Y-120335687I-50000J0D01*
G01*
X116897000Y-121590451D02*
G75*
G03*
X116897000Y-121590451I-50000J0D01*
G01*
X116897000Y-119080923D02*
G75*
G03*
X116897000Y-119080923I-50000J0D01*
G01*
X116897000Y-121276760D02*
G75*
G03*
X116897000Y-121276760I-50000J0D01*
G01*
X157476862Y-114997000D02*
G75*
G03*
X157476862Y-114997000I-50000J0D01*
G01*
X160194394Y-114997000D02*
G75*
G03*
X160194394Y-114997000I-50000J0D01*
G01*
X156571018Y-114997000D02*
G75*
G03*
X156571018Y-114997000I-50000J0D01*
G01*
X152947642Y-114997000D02*
G75*
G03*
X152947642Y-114997000I-50000J0D01*
G01*
X154759330Y-114997000D02*
G75*
G03*
X154759330Y-114997000I-50000J0D01*
G01*
X158382706Y-114997000D02*
G75*
G03*
X158382706Y-114997000I-50000J0D01*
G01*
X153853486Y-114997000D02*
G75*
G03*
X153853486Y-114997000I-50000J0D01*
G01*
X155061278Y-114997000D02*
G75*
G03*
X155061278Y-114997000I-50000J0D01*
G01*
X160798290Y-114997000D02*
G75*
G03*
X160798290Y-114997000I-50000J0D01*
G01*
X153249590Y-114997000D02*
G75*
G03*
X153249590Y-114997000I-50000J0D01*
G01*
X157778810Y-114997000D02*
G75*
G03*
X157778810Y-114997000I-50000J0D01*
G01*
X152343746Y-114997000D02*
G75*
G03*
X152343746Y-114997000I-50000J0D01*
G01*
X153551538Y-114997000D02*
G75*
G03*
X153551538Y-114997000I-50000J0D01*
G01*
X152041798Y-114997000D02*
G75*
G03*
X152041798Y-114997000I-50000J0D01*
G01*
X155665174Y-114997000D02*
G75*
G03*
X155665174Y-114997000I-50000J0D01*
G01*
X158684654Y-114997000D02*
G75*
G03*
X158684654Y-114997000I-50000J0D01*
G01*
X159590498Y-114997000D02*
G75*
G03*
X159590498Y-114997000I-50000J0D01*
G01*
X158080758Y-114997000D02*
G75*
G03*
X158080758Y-114997000I-50000J0D01*
G01*
X154155434Y-114997000D02*
G75*
G03*
X154155434Y-114997000I-50000J0D01*
G01*
X154457382Y-114997000D02*
G75*
G03*
X154457382Y-114997000I-50000J0D01*
G01*
X156872966Y-114997000D02*
G75*
G03*
X156872966Y-114997000I-50000J0D01*
G01*
X152645694Y-114997000D02*
G75*
G03*
X152645694Y-114997000I-50000J0D01*
G01*
D11*
X167877000Y-93667000D02*
X167877000Y-96327000D01*
X167757000Y-93667000D02*
X167877000Y-93667000D01*
X167757000Y-96327000D02*
X167877000Y-96327000D01*
X165217000Y-96327000D02*
X166547000Y-96327000D01*
X165217000Y-94997000D02*
X165217000Y-96327000D01*
X113717000Y-96327000D02*
X113717000Y-93667000D01*
X113837000Y-96327000D02*
X113717000Y-96327000D01*
X113837000Y-93667000D02*
X113717000Y-93667000D01*
X116377000Y-93667000D02*
X115047000Y-93667000D01*
X116377000Y-94997000D02*
X116377000Y-93667000D01*
X172127000Y-118667000D02*
X172127000Y-121327000D01*
X172007000Y-118667000D02*
X172127000Y-118667000D01*
X172007000Y-121327000D02*
X172127000Y-121327000D01*
X169467000Y-121327000D02*
X170797000Y-121327000D01*
X169467000Y-119997000D02*
X169467000Y-121327000D01*
X172127000Y-88667000D02*
X172127000Y-91327000D01*
X172007000Y-88667000D02*
X172127000Y-88667000D01*
X172007000Y-91327000D02*
X172127000Y-91327000D01*
X169467000Y-91327000D02*
X170797000Y-91327000D01*
X169467000Y-89997000D02*
X169467000Y-91327000D01*
X109467000Y-121327000D02*
X109467000Y-118667000D01*
X109587000Y-121327000D02*
X109467000Y-121327000D01*
X109587000Y-118667000D02*
X109467000Y-118667000D01*
X112127000Y-118667000D02*
X110797000Y-118667000D01*
X112127000Y-119997000D02*
X112127000Y-118667000D01*
X109467000Y-91327000D02*
X109467000Y-88667000D01*
X109587000Y-91327000D02*
X109467000Y-91327000D01*
X109587000Y-88667000D02*
X109467000Y-88667000D01*
X112127000Y-88667000D02*
X110797000Y-88667000D01*
X112127000Y-89997000D02*
X112127000Y-88667000D01*
X119697000Y-131827000D02*
X119697000Y-129167000D01*
X127377000Y-131827000D02*
X119697000Y-131827000D01*
X127377000Y-129167000D02*
X119697000Y-129167000D01*
X127377000Y-131827000D02*
X127377000Y-129167000D01*
X128647000Y-131827000D02*
X129977000Y-131827000D01*
X129977000Y-131827000D02*
X129977000Y-130497000D01*
X151597000Y-131827000D02*
X151597000Y-129167000D01*
X159277000Y-131827000D02*
X151597000Y-131827000D01*
X159277000Y-129167000D02*
X151597000Y-129167000D01*
X159277000Y-131827000D02*
X159277000Y-129167000D01*
X160547000Y-131827000D02*
X161877000Y-131827000D01*
X161877000Y-131827000D02*
X161877000Y-130497000D01*
X119697000Y-111827000D02*
X119697000Y-109167000D01*
X127377000Y-111827000D02*
X119697000Y-111827000D01*
X127377000Y-109167000D02*
X119697000Y-109167000D01*
X127377000Y-111827000D02*
X127377000Y-109167000D01*
X128647000Y-111827000D02*
X129977000Y-111827000D01*
X129977000Y-111827000D02*
X129977000Y-110497000D01*
X151597000Y-111827000D02*
X151597000Y-109167000D01*
X159277000Y-111827000D02*
X151597000Y-111827000D01*
X159277000Y-109167000D02*
X151597000Y-109167000D01*
X159277000Y-111827000D02*
X159277000Y-109167000D01*
X160547000Y-111827000D02*
X161877000Y-111827000D01*
X161877000Y-111827000D02*
X161877000Y-110497000D01*
X159125000Y-93667936D02*
X159125000Y-94122064D01*
X157655000Y-93667936D02*
X157655000Y-94122064D01*
X123909000Y-93677936D02*
X123909000Y-94132064D01*
X122439000Y-93677936D02*
X122439000Y-94132064D01*
X122512500Y-103098748D02*
X122512500Y-103621252D01*
X121042500Y-103098748D02*
X121042500Y-103621252D01*
X129655000Y-93687936D02*
X129655000Y-94142064D01*
X131125000Y-93687936D02*
X131125000Y-94142064D01*
X150791242Y-97675000D02*
X149120758Y-97675000D01*
X150791242Y-99495000D02*
X149120758Y-99495000D01*
X160448000Y-93667936D02*
X160448000Y-94122064D01*
X161918000Y-93667936D02*
X161918000Y-94122064D01*
X146590000Y-103329748D02*
X146590000Y-104752252D01*
X148410000Y-103329748D02*
X148410000Y-104752252D01*
X145532000Y-101395252D02*
X145532000Y-100872748D01*
X144062000Y-101395252D02*
X144062000Y-100872748D01*
X151869000Y-106655564D02*
X151869000Y-106201436D01*
X150399000Y-106655564D02*
X150399000Y-106201436D01*
X123909000Y-98812064D02*
X123909000Y-98357936D01*
X122439000Y-98812064D02*
X122439000Y-98357936D01*
X119646000Y-98357936D02*
X119646000Y-98812064D01*
X121116000Y-98357936D02*
X121116000Y-98812064D01*
X147646000Y-93667936D02*
X147646000Y-94122064D01*
X149116000Y-93667936D02*
X149116000Y-94122064D01*
X156789500Y-100870000D02*
X156789500Y-102570000D01*
X156789500Y-102570000D02*
X154239500Y-102570000D01*
X156789500Y-100870000D02*
X154239500Y-100870000D01*
X133128000Y-103329748D02*
X133128000Y-104752252D01*
X134948000Y-103329748D02*
X134948000Y-104752252D01*
X137532000Y-101395252D02*
X137532000Y-100872748D01*
X136062000Y-101395252D02*
X136062000Y-100872748D01*
X153217000Y-97825000D02*
X154147000Y-97825000D01*
X156377000Y-97825000D02*
X155447000Y-97825000D01*
X156377000Y-97825000D02*
X156377000Y-99985000D01*
X153217000Y-97825000D02*
X153217000Y-99285000D01*
X125187000Y-97825000D02*
X126117000Y-97825000D01*
X128347000Y-97825000D02*
X127417000Y-97825000D01*
X128347000Y-97825000D02*
X128347000Y-99985000D01*
X125187000Y-97825000D02*
X125187000Y-99285000D01*
X131125000Y-98846252D02*
X131125000Y-98323748D01*
X129655000Y-98846252D02*
X129655000Y-98323748D01*
X139797000Y-98774000D02*
X138487000Y-98774000D01*
X138487000Y-98774000D02*
X138487000Y-101494000D01*
X142977000Y-102634000D02*
X142977000Y-101494000D01*
X143207000Y-98774000D02*
X141897000Y-98774000D01*
X143207000Y-101494000D02*
X143207000Y-98774000D01*
X143207000Y-101494000D02*
X142977000Y-101494000D01*
X138487000Y-101494000D02*
X138717000Y-101494000D01*
X151909000Y-94122064D02*
X151909000Y-93667936D01*
X150439000Y-94122064D02*
X150439000Y-93667936D01*
X121116000Y-94142064D02*
X121116000Y-93687936D01*
X119646000Y-94142064D02*
X119646000Y-93687936D01*
X133948000Y-94156252D02*
X133948000Y-93633748D01*
X132478000Y-94156252D02*
X132478000Y-93633748D01*
X133948000Y-98812064D02*
X133948000Y-98357936D01*
X132478000Y-98812064D02*
X132478000Y-98357936D01*
X163045000Y-106655564D02*
X163045000Y-106201436D01*
X161575000Y-106655564D02*
X161575000Y-106201436D01*
X146322000Y-94122064D02*
X146322000Y-93667936D01*
X144852000Y-94122064D02*
X144852000Y-93667936D01*
D12*
X164181761Y-93735095D02*
X164229380Y-93877952D01*
X164229380Y-94116047D01*
X164181761Y-94211285D01*
X164134142Y-94258904D01*
X164038904Y-94306523D01*
X163943666Y-94306523D01*
X163848428Y-94258904D01*
X163800809Y-94211285D01*
X163753190Y-94116047D01*
X163705571Y-93925571D01*
X163657952Y-93830333D01*
X163610333Y-93782714D01*
X163515095Y-93735095D01*
X163419857Y-93735095D01*
X163324619Y-93782714D01*
X163277000Y-93830333D01*
X163229380Y-93925571D01*
X163229380Y-94163666D01*
X163277000Y-94306523D01*
X163705571Y-95068428D02*
X163753190Y-95211285D01*
X163800809Y-95258904D01*
X163896047Y-95306523D01*
X164038904Y-95306523D01*
X164134142Y-95258904D01*
X164181761Y-95211285D01*
X164229380Y-95116047D01*
X164229380Y-94735095D01*
X163229380Y-94735095D01*
X163229380Y-95068428D01*
X163277000Y-95163666D01*
X163324619Y-95211285D01*
X163419857Y-95258904D01*
X163515095Y-95258904D01*
X163610333Y-95211285D01*
X163657952Y-95163666D01*
X163705571Y-95068428D01*
X163705571Y-94735095D01*
X163324619Y-95687476D02*
X163277000Y-95735095D01*
X163229380Y-95830333D01*
X163229380Y-96068428D01*
X163277000Y-96163666D01*
X163324619Y-96211285D01*
X163419857Y-96258904D01*
X163515095Y-96258904D01*
X163657952Y-96211285D01*
X164229380Y-95639857D01*
X164229380Y-96258904D01*
X118221761Y-93735095D02*
X118269380Y-93877952D01*
X118269380Y-94116047D01*
X118221761Y-94211285D01*
X118174142Y-94258904D01*
X118078904Y-94306523D01*
X117983666Y-94306523D01*
X117888428Y-94258904D01*
X117840809Y-94211285D01*
X117793190Y-94116047D01*
X117745571Y-93925571D01*
X117697952Y-93830333D01*
X117650333Y-93782714D01*
X117555095Y-93735095D01*
X117459857Y-93735095D01*
X117364619Y-93782714D01*
X117317000Y-93830333D01*
X117269380Y-93925571D01*
X117269380Y-94163666D01*
X117317000Y-94306523D01*
X117745571Y-95068428D02*
X117793190Y-95211285D01*
X117840809Y-95258904D01*
X117936047Y-95306523D01*
X118078904Y-95306523D01*
X118174142Y-95258904D01*
X118221761Y-95211285D01*
X118269380Y-95116047D01*
X118269380Y-94735095D01*
X117269380Y-94735095D01*
X117269380Y-95068428D01*
X117317000Y-95163666D01*
X117364619Y-95211285D01*
X117459857Y-95258904D01*
X117555095Y-95258904D01*
X117650333Y-95211285D01*
X117697952Y-95163666D01*
X117745571Y-95068428D01*
X117745571Y-94735095D01*
X118269380Y-96258904D02*
X118269380Y-95687476D01*
X118269380Y-95973190D02*
X117269380Y-95973190D01*
X117412238Y-95877952D01*
X117507476Y-95782714D01*
X117555095Y-95687476D01*
X168479380Y-119330333D02*
X168479380Y-118854142D01*
X167479380Y-118854142D01*
X167955571Y-119997000D02*
X168003190Y-120139857D01*
X168050809Y-120187476D01*
X168146047Y-120235095D01*
X168288904Y-120235095D01*
X168384142Y-120187476D01*
X168431761Y-120139857D01*
X168479380Y-120044619D01*
X168479380Y-119663666D01*
X167479380Y-119663666D01*
X167479380Y-119997000D01*
X167527000Y-120092238D01*
X167574619Y-120139857D01*
X167669857Y-120187476D01*
X167765095Y-120187476D01*
X167860333Y-120139857D01*
X167907952Y-120092238D01*
X167955571Y-119997000D01*
X167955571Y-119663666D01*
X167812714Y-121092238D02*
X168479380Y-121092238D01*
X167431761Y-120854142D02*
X168146047Y-120616047D01*
X168146047Y-121235095D01*
X168479380Y-89330333D02*
X168479380Y-88854142D01*
X167479380Y-88854142D01*
X167955571Y-89997000D02*
X168003190Y-90139857D01*
X168050809Y-90187476D01*
X168146047Y-90235095D01*
X168288904Y-90235095D01*
X168384142Y-90187476D01*
X168431761Y-90139857D01*
X168479380Y-90044619D01*
X168479380Y-89663666D01*
X167479380Y-89663666D01*
X167479380Y-89997000D01*
X167527000Y-90092238D01*
X167574619Y-90139857D01*
X167669857Y-90187476D01*
X167765095Y-90187476D01*
X167860333Y-90139857D01*
X167907952Y-90092238D01*
X167955571Y-89997000D01*
X167955571Y-89663666D01*
X167479380Y-90568428D02*
X167479380Y-91187476D01*
X167860333Y-90854142D01*
X167860333Y-90997000D01*
X167907952Y-91092238D01*
X167955571Y-91139857D01*
X168050809Y-91187476D01*
X168288904Y-91187476D01*
X168384142Y-91139857D01*
X168431761Y-91092238D01*
X168479380Y-90997000D01*
X168479380Y-90711285D01*
X168431761Y-90616047D01*
X168384142Y-90568428D01*
X114019380Y-119330333D02*
X114019380Y-118854142D01*
X113019380Y-118854142D01*
X113495571Y-119997000D02*
X113543190Y-120139857D01*
X113590809Y-120187476D01*
X113686047Y-120235095D01*
X113828904Y-120235095D01*
X113924142Y-120187476D01*
X113971761Y-120139857D01*
X114019380Y-120044619D01*
X114019380Y-119663666D01*
X113019380Y-119663666D01*
X113019380Y-119997000D01*
X113067000Y-120092238D01*
X113114619Y-120139857D01*
X113209857Y-120187476D01*
X113305095Y-120187476D01*
X113400333Y-120139857D01*
X113447952Y-120092238D01*
X113495571Y-119997000D01*
X113495571Y-119663666D01*
X113114619Y-120616047D02*
X113067000Y-120663666D01*
X113019380Y-120758904D01*
X113019380Y-120997000D01*
X113067000Y-121092238D01*
X113114619Y-121139857D01*
X113209857Y-121187476D01*
X113305095Y-121187476D01*
X113447952Y-121139857D01*
X114019380Y-120568428D01*
X114019380Y-121187476D01*
X114019380Y-89330333D02*
X114019380Y-88854142D01*
X113019380Y-88854142D01*
X113495571Y-89997000D02*
X113543190Y-90139857D01*
X113590809Y-90187476D01*
X113686047Y-90235095D01*
X113828904Y-90235095D01*
X113924142Y-90187476D01*
X113971761Y-90139857D01*
X114019380Y-90044619D01*
X114019380Y-89663666D01*
X113019380Y-89663666D01*
X113019380Y-89997000D01*
X113067000Y-90092238D01*
X113114619Y-90139857D01*
X113209857Y-90187476D01*
X113305095Y-90187476D01*
X113400333Y-90139857D01*
X113447952Y-90092238D01*
X113495571Y-89997000D01*
X113495571Y-89663666D01*
X114019380Y-91187476D02*
X114019380Y-90616047D01*
X114019380Y-90901761D02*
X113019380Y-90901761D01*
X113162238Y-90806523D01*
X113257476Y-90711285D01*
X113305095Y-90616047D01*
X130429380Y-130163666D02*
X131143666Y-130163666D01*
X131286523Y-130116047D01*
X131381761Y-130020809D01*
X131429380Y-129877952D01*
X131429380Y-129782714D01*
X130762714Y-131068428D02*
X131429380Y-131068428D01*
X130381761Y-130830333D02*
X131096047Y-130592238D01*
X131096047Y-131211285D01*
X162329380Y-130163666D02*
X163043666Y-130163666D01*
X163186523Y-130116047D01*
X163281761Y-130020809D01*
X163329380Y-129877952D01*
X163329380Y-129782714D01*
X162329380Y-130544619D02*
X162329380Y-131163666D01*
X162710333Y-130830333D01*
X162710333Y-130973190D01*
X162757952Y-131068428D01*
X162805571Y-131116047D01*
X162900809Y-131163666D01*
X163138904Y-131163666D01*
X163234142Y-131116047D01*
X163281761Y-131068428D01*
X163329380Y-130973190D01*
X163329380Y-130687476D01*
X163281761Y-130592238D01*
X163234142Y-130544619D01*
X130429380Y-110163666D02*
X131143666Y-110163666D01*
X131286523Y-110116047D01*
X131381761Y-110020809D01*
X131429380Y-109877952D01*
X131429380Y-109782714D01*
X130524619Y-110592238D02*
X130477000Y-110639857D01*
X130429380Y-110735095D01*
X130429380Y-110973190D01*
X130477000Y-111068428D01*
X130524619Y-111116047D01*
X130619857Y-111163666D01*
X130715095Y-111163666D01*
X130857952Y-111116047D01*
X131429380Y-110544619D01*
X131429380Y-111163666D01*
X162329380Y-110163666D02*
X163043666Y-110163666D01*
X163186523Y-110116047D01*
X163281761Y-110020809D01*
X163329380Y-109877952D01*
X163329380Y-109782714D01*
X163329380Y-111163666D02*
X163329380Y-110592238D01*
X163329380Y-110877952D02*
X162329380Y-110877952D01*
X162472238Y-110782714D01*
X162567476Y-110687476D01*
X162615095Y-110592238D01*
X156668571Y-93490238D02*
X156716190Y-93633095D01*
X156763809Y-93680714D01*
X156859047Y-93728333D01*
X157001904Y-93728333D01*
X157097142Y-93680714D01*
X157144761Y-93633095D01*
X157192380Y-93537857D01*
X157192380Y-93156904D01*
X156192380Y-93156904D01*
X156192380Y-93490238D01*
X156240000Y-93585476D01*
X156287619Y-93633095D01*
X156382857Y-93680714D01*
X156478095Y-93680714D01*
X156573333Y-93633095D01*
X156620952Y-93585476D01*
X156668571Y-93490238D01*
X156668571Y-93156904D01*
X156287619Y-94109285D02*
X156240000Y-94156904D01*
X156192380Y-94252142D01*
X156192380Y-94490238D01*
X156240000Y-94585476D01*
X156287619Y-94633095D01*
X156382857Y-94680714D01*
X156478095Y-94680714D01*
X156620952Y-94633095D01*
X157192380Y-94061666D01*
X157192380Y-94680714D01*
X121452571Y-93500238D02*
X121500190Y-93643095D01*
X121547809Y-93690714D01*
X121643047Y-93738333D01*
X121785904Y-93738333D01*
X121881142Y-93690714D01*
X121928761Y-93643095D01*
X121976380Y-93547857D01*
X121976380Y-93166904D01*
X120976380Y-93166904D01*
X120976380Y-93500238D01*
X121024000Y-93595476D01*
X121071619Y-93643095D01*
X121166857Y-93690714D01*
X121262095Y-93690714D01*
X121357333Y-93643095D01*
X121404952Y-93595476D01*
X121452571Y-93500238D01*
X121452571Y-93166904D01*
X121976380Y-94690714D02*
X121976380Y-94119285D01*
X121976380Y-94405000D02*
X120976380Y-94405000D01*
X121119238Y-94309761D01*
X121214476Y-94214523D01*
X121262095Y-94119285D01*
X121944166Y-106193642D02*
X121991785Y-106241261D01*
X122134642Y-106288880D01*
X122229880Y-106288880D01*
X122372738Y-106241261D01*
X122467976Y-106146023D01*
X122515595Y-106050785D01*
X122563214Y-105860309D01*
X122563214Y-105717452D01*
X122515595Y-105526976D01*
X122467976Y-105431738D01*
X122372738Y-105336500D01*
X122229880Y-105288880D01*
X122134642Y-105288880D01*
X121991785Y-105336500D01*
X121944166Y-105384119D01*
X121610833Y-105288880D02*
X120944166Y-105288880D01*
X121372738Y-106288880D01*
X130556666Y-91933380D02*
X130890000Y-91457190D01*
X131128095Y-91933380D02*
X131128095Y-90933380D01*
X130747142Y-90933380D01*
X130651904Y-90981000D01*
X130604285Y-91028619D01*
X130556666Y-91123857D01*
X130556666Y-91266714D01*
X130604285Y-91361952D01*
X130651904Y-91409571D01*
X130747142Y-91457190D01*
X131128095Y-91457190D01*
X129699523Y-91266714D02*
X129699523Y-91933380D01*
X129937619Y-90885761D02*
X130175714Y-91600047D01*
X129556666Y-91600047D01*
X147395380Y-98350833D02*
X147395380Y-97874642D01*
X146395380Y-97874642D01*
X147395380Y-99207976D02*
X147395380Y-98636547D01*
X147395380Y-98922261D02*
X146395380Y-98922261D01*
X146538238Y-98827023D01*
X146633476Y-98731785D01*
X146681095Y-98636547D01*
X161825857Y-91933380D02*
X162159190Y-91457190D01*
X162397285Y-91933380D02*
X162397285Y-90933380D01*
X162016333Y-90933380D01*
X161921095Y-90981000D01*
X161873476Y-91028619D01*
X161825857Y-91123857D01*
X161825857Y-91266714D01*
X161873476Y-91361952D01*
X161921095Y-91409571D01*
X162016333Y-91457190D01*
X162397285Y-91457190D01*
X160873476Y-91933380D02*
X161444904Y-91933380D01*
X161159190Y-91933380D02*
X161159190Y-90933380D01*
X161254428Y-91076238D01*
X161349666Y-91171476D01*
X161444904Y-91219095D01*
X160254428Y-90933380D02*
X160159190Y-90933380D01*
X160063952Y-90981000D01*
X160016333Y-91028619D01*
X159968714Y-91123857D01*
X159921095Y-91314333D01*
X159921095Y-91552428D01*
X159968714Y-91742904D01*
X160016333Y-91838142D01*
X160063952Y-91885761D01*
X160159190Y-91933380D01*
X160254428Y-91933380D01*
X160349666Y-91885761D01*
X160397285Y-91838142D01*
X160444904Y-91742904D01*
X160492523Y-91552428D01*
X160492523Y-91314333D01*
X160444904Y-91123857D01*
X160397285Y-91028619D01*
X160349666Y-90981000D01*
X160254428Y-90933380D01*
X147666666Y-107519142D02*
X147714285Y-107566761D01*
X147857142Y-107614380D01*
X147952380Y-107614380D01*
X148095238Y-107566761D01*
X148190476Y-107471523D01*
X148238095Y-107376285D01*
X148285714Y-107185809D01*
X148285714Y-107042952D01*
X148238095Y-106852476D01*
X148190476Y-106757238D01*
X148095238Y-106662000D01*
X147952380Y-106614380D01*
X147857142Y-106614380D01*
X147714285Y-106662000D01*
X147666666Y-106709619D01*
X146809523Y-106947714D02*
X146809523Y-107614380D01*
X147047619Y-106566761D02*
X147285714Y-107281047D01*
X146666666Y-107281047D01*
X144963666Y-98988142D02*
X145011285Y-99035761D01*
X145154142Y-99083380D01*
X145249380Y-99083380D01*
X145392238Y-99035761D01*
X145487476Y-98940523D01*
X145535095Y-98845285D01*
X145582714Y-98654809D01*
X145582714Y-98511952D01*
X145535095Y-98321476D01*
X145487476Y-98226238D01*
X145392238Y-98131000D01*
X145249380Y-98083380D01*
X145154142Y-98083380D01*
X145011285Y-98131000D01*
X144963666Y-98178619D01*
X144630333Y-98083380D02*
X144011285Y-98083380D01*
X144344619Y-98464333D01*
X144201761Y-98464333D01*
X144106523Y-98511952D01*
X144058904Y-98559571D01*
X144011285Y-98654809D01*
X144011285Y-98892904D01*
X144058904Y-98988142D01*
X144106523Y-99035761D01*
X144201761Y-99083380D01*
X144487476Y-99083380D01*
X144582714Y-99035761D01*
X144630333Y-98988142D01*
X151300666Y-104585380D02*
X151634000Y-104109190D01*
X151872095Y-104585380D02*
X151872095Y-103585380D01*
X151491142Y-103585380D01*
X151395904Y-103633000D01*
X151348285Y-103680619D01*
X151300666Y-103775857D01*
X151300666Y-103918714D01*
X151348285Y-104013952D01*
X151395904Y-104061571D01*
X151491142Y-104109190D01*
X151872095Y-104109190D01*
X150443523Y-103585380D02*
X150634000Y-103585380D01*
X150729238Y-103633000D01*
X150776857Y-103680619D01*
X150872095Y-103823476D01*
X150919714Y-104013952D01*
X150919714Y-104394904D01*
X150872095Y-104490142D01*
X150824476Y-104537761D01*
X150729238Y-104585380D01*
X150538761Y-104585380D01*
X150443523Y-104537761D01*
X150395904Y-104490142D01*
X150348285Y-104394904D01*
X150348285Y-104156809D01*
X150395904Y-104061571D01*
X150443523Y-104013952D01*
X150538761Y-103966333D01*
X150729238Y-103966333D01*
X150824476Y-104013952D01*
X150872095Y-104061571D01*
X150919714Y-104156809D01*
X123340666Y-101427840D02*
X123674000Y-100951650D01*
X123912095Y-101427840D02*
X123912095Y-100427840D01*
X123531142Y-100427840D01*
X123435904Y-100475460D01*
X123388285Y-100523079D01*
X123340666Y-100618317D01*
X123340666Y-100761174D01*
X123388285Y-100856412D01*
X123435904Y-100904031D01*
X123531142Y-100951650D01*
X123912095Y-100951650D01*
X122959714Y-100523079D02*
X122912095Y-100475460D01*
X122816857Y-100427840D01*
X122578761Y-100427840D01*
X122483523Y-100475460D01*
X122435904Y-100523079D01*
X122388285Y-100618317D01*
X122388285Y-100713555D01*
X122435904Y-100856412D01*
X123007333Y-101427840D01*
X122388285Y-101427840D01*
X120547666Y-101452920D02*
X120881000Y-100976730D01*
X121119095Y-101452920D02*
X121119095Y-100452920D01*
X120738142Y-100452920D01*
X120642904Y-100500540D01*
X120595285Y-100548159D01*
X120547666Y-100643397D01*
X120547666Y-100786254D01*
X120595285Y-100881492D01*
X120642904Y-100929111D01*
X120738142Y-100976730D01*
X121119095Y-100976730D01*
X120214333Y-100452920D02*
X119595285Y-100452920D01*
X119928619Y-100833873D01*
X119785761Y-100833873D01*
X119690523Y-100881492D01*
X119642904Y-100929111D01*
X119595285Y-101024349D01*
X119595285Y-101262444D01*
X119642904Y-101357682D01*
X119690523Y-101405301D01*
X119785761Y-101452920D01*
X120071476Y-101452920D01*
X120166714Y-101405301D01*
X120214333Y-101357682D01*
X148547666Y-91933380D02*
X148881000Y-91457190D01*
X149119095Y-91933380D02*
X149119095Y-90933380D01*
X148738142Y-90933380D01*
X148642904Y-90981000D01*
X148595285Y-91028619D01*
X148547666Y-91123857D01*
X148547666Y-91266714D01*
X148595285Y-91361952D01*
X148642904Y-91409571D01*
X148738142Y-91457190D01*
X149119095Y-91457190D01*
X147976238Y-91361952D02*
X148071476Y-91314333D01*
X148119095Y-91266714D01*
X148166714Y-91171476D01*
X148166714Y-91123857D01*
X148119095Y-91028619D01*
X148071476Y-90981000D01*
X147976238Y-90933380D01*
X147785761Y-90933380D01*
X147690523Y-90981000D01*
X147642904Y-91028619D01*
X147595285Y-91123857D01*
X147595285Y-91171476D01*
X147642904Y-91266714D01*
X147690523Y-91314333D01*
X147785761Y-91361952D01*
X147976238Y-91361952D01*
X148071476Y-91409571D01*
X148119095Y-91457190D01*
X148166714Y-91552428D01*
X148166714Y-91742904D01*
X148119095Y-91838142D01*
X148071476Y-91885761D01*
X147976238Y-91933380D01*
X147785761Y-91933380D01*
X147690523Y-91885761D01*
X147642904Y-91838142D01*
X147595285Y-91742904D01*
X147595285Y-91552428D01*
X147642904Y-91457190D01*
X147690523Y-91409571D01*
X147785761Y-91361952D01*
X153281880Y-100981905D02*
X152281880Y-100981905D01*
X152281880Y-101220001D01*
X152329500Y-101362858D01*
X152424738Y-101458096D01*
X152519976Y-101505715D01*
X152710452Y-101553334D01*
X152853309Y-101553334D01*
X153043785Y-101505715D01*
X153139023Y-101458096D01*
X153234261Y-101362858D01*
X153281880Y-101220001D01*
X153281880Y-100981905D01*
X153281880Y-102505715D02*
X153281880Y-101934286D01*
X153281880Y-102220001D02*
X152281880Y-102220001D01*
X152424738Y-102124762D01*
X152519976Y-102029524D01*
X152567595Y-101934286D01*
X134204667Y-107519142D02*
X134252286Y-107566761D01*
X134395143Y-107614380D01*
X134490381Y-107614380D01*
X134633239Y-107566761D01*
X134728477Y-107471523D01*
X134776096Y-107376285D01*
X134823715Y-107185809D01*
X134823715Y-107042952D01*
X134776096Y-106852476D01*
X134728477Y-106757238D01*
X134633239Y-106662000D01*
X134490381Y-106614380D01*
X134395143Y-106614380D01*
X134252286Y-106662000D01*
X134204667Y-106709619D01*
X133252286Y-107614380D02*
X133823715Y-107614380D01*
X133538001Y-107614380D02*
X133538001Y-106614380D01*
X133633239Y-106757238D01*
X133728477Y-106852476D01*
X133823715Y-106900095D01*
X136963666Y-98988142D02*
X137011285Y-99035761D01*
X137154142Y-99083380D01*
X137249380Y-99083380D01*
X137392238Y-99035761D01*
X137487476Y-98940523D01*
X137535095Y-98845285D01*
X137582714Y-98654809D01*
X137582714Y-98511952D01*
X137535095Y-98321476D01*
X137487476Y-98226238D01*
X137392238Y-98131000D01*
X137249380Y-98083380D01*
X137154142Y-98083380D01*
X137011285Y-98131000D01*
X136963666Y-98178619D01*
X136582714Y-98178619D02*
X136535095Y-98131000D01*
X136439857Y-98083380D01*
X136201761Y-98083380D01*
X136106523Y-98131000D01*
X136058904Y-98178619D01*
X136011285Y-98273857D01*
X136011285Y-98369095D01*
X136058904Y-98511952D01*
X136630333Y-99083380D01*
X136011285Y-99083380D01*
X157904619Y-99139762D02*
X157857000Y-99044524D01*
X157761761Y-98949286D01*
X157618904Y-98806429D01*
X157571285Y-98711191D01*
X157571285Y-98615953D01*
X157809380Y-98663572D02*
X157761761Y-98568334D01*
X157666523Y-98473096D01*
X157476047Y-98425477D01*
X157142714Y-98425477D01*
X156952238Y-98473096D01*
X156857000Y-98568334D01*
X156809380Y-98663572D01*
X156809380Y-98854048D01*
X156857000Y-98949286D01*
X156952238Y-99044524D01*
X157142714Y-99092143D01*
X157476047Y-99092143D01*
X157666523Y-99044524D01*
X157761761Y-98949286D01*
X157809380Y-98854048D01*
X157809380Y-98663572D01*
X156904619Y-99473096D02*
X156857000Y-99520715D01*
X156809380Y-99615953D01*
X156809380Y-99854048D01*
X156857000Y-99949286D01*
X156904619Y-99996905D01*
X156999857Y-100044524D01*
X157095095Y-100044524D01*
X157237952Y-99996905D01*
X157809380Y-99425477D01*
X157809380Y-100044524D01*
X126862238Y-101543079D02*
X126957476Y-101495460D01*
X127052714Y-101400221D01*
X127195571Y-101257364D01*
X127290809Y-101209745D01*
X127386047Y-101209745D01*
X127338428Y-101447840D02*
X127433666Y-101400221D01*
X127528904Y-101304983D01*
X127576523Y-101114507D01*
X127576523Y-100781174D01*
X127528904Y-100590698D01*
X127433666Y-100495460D01*
X127338428Y-100447840D01*
X127147952Y-100447840D01*
X127052714Y-100495460D01*
X126957476Y-100590698D01*
X126909857Y-100781174D01*
X126909857Y-101114507D01*
X126957476Y-101304983D01*
X127052714Y-101400221D01*
X127147952Y-101447840D01*
X127338428Y-101447840D01*
X125957476Y-101447840D02*
X126528904Y-101447840D01*
X126243190Y-101447840D02*
X126243190Y-100447840D01*
X126338428Y-100590698D01*
X126433666Y-100685936D01*
X126528904Y-100733555D01*
X130556666Y-101352602D02*
X130604285Y-101400221D01*
X130747142Y-101447840D01*
X130842380Y-101447840D01*
X130985238Y-101400221D01*
X131080476Y-101304983D01*
X131128095Y-101209745D01*
X131175714Y-101019269D01*
X131175714Y-100876412D01*
X131128095Y-100685936D01*
X131080476Y-100590698D01*
X130985238Y-100495460D01*
X130842380Y-100447840D01*
X130747142Y-100447840D01*
X130604285Y-100495460D01*
X130556666Y-100543079D01*
X129651904Y-100447840D02*
X130128095Y-100447840D01*
X130175714Y-100924031D01*
X130128095Y-100876412D01*
X130032857Y-100828793D01*
X129794761Y-100828793D01*
X129699523Y-100876412D01*
X129651904Y-100924031D01*
X129604285Y-101019269D01*
X129604285Y-101257364D01*
X129651904Y-101352602D01*
X129699523Y-101400221D01*
X129794761Y-101447840D01*
X130032857Y-101447840D01*
X130128095Y-101400221D01*
X130175714Y-101352602D01*
X141608904Y-96559380D02*
X141608904Y-97368904D01*
X141561285Y-97464142D01*
X141513666Y-97511761D01*
X141418428Y-97559380D01*
X141227952Y-97559380D01*
X141132714Y-97511761D01*
X141085095Y-97464142D01*
X141037476Y-97368904D01*
X141037476Y-96559380D01*
X140037476Y-97559380D02*
X140608904Y-97559380D01*
X140323190Y-97559380D02*
X140323190Y-96559380D01*
X140418428Y-96702238D01*
X140513666Y-96797476D01*
X140608904Y-96845095D01*
X151816857Y-91933380D02*
X152150190Y-91457190D01*
X152388285Y-91933380D02*
X152388285Y-90933380D01*
X152007333Y-90933380D01*
X151912095Y-90981000D01*
X151864476Y-91028619D01*
X151816857Y-91123857D01*
X151816857Y-91266714D01*
X151864476Y-91361952D01*
X151912095Y-91409571D01*
X152007333Y-91457190D01*
X152388285Y-91457190D01*
X150864476Y-91933380D02*
X151435904Y-91933380D01*
X151150190Y-91933380D02*
X151150190Y-90933380D01*
X151245428Y-91076238D01*
X151340666Y-91171476D01*
X151435904Y-91219095D01*
X149912095Y-91933380D02*
X150483523Y-91933380D01*
X150197809Y-91933380D02*
X150197809Y-90933380D01*
X150293047Y-91076238D01*
X150388285Y-91171476D01*
X150483523Y-91219095D01*
X120547666Y-91933380D02*
X120881000Y-91457190D01*
X121119095Y-91933380D02*
X121119095Y-90933380D01*
X120738142Y-90933380D01*
X120642904Y-90981000D01*
X120595285Y-91028619D01*
X120547666Y-91123857D01*
X120547666Y-91266714D01*
X120595285Y-91361952D01*
X120642904Y-91409571D01*
X120738142Y-91457190D01*
X121119095Y-91457190D01*
X119642904Y-90933380D02*
X120119095Y-90933380D01*
X120166714Y-91409571D01*
X120119095Y-91361952D01*
X120023857Y-91314333D01*
X119785761Y-91314333D01*
X119690523Y-91361952D01*
X119642904Y-91409571D01*
X119595285Y-91504809D01*
X119595285Y-91742904D01*
X119642904Y-91838142D01*
X119690523Y-91885761D01*
X119785761Y-91933380D01*
X120023857Y-91933380D01*
X120119095Y-91885761D01*
X120166714Y-91838142D01*
X133379666Y-91838142D02*
X133427285Y-91885761D01*
X133570142Y-91933380D01*
X133665380Y-91933380D01*
X133808238Y-91885761D01*
X133903476Y-91790523D01*
X133951095Y-91695285D01*
X133998714Y-91504809D01*
X133998714Y-91361952D01*
X133951095Y-91171476D01*
X133903476Y-91076238D01*
X133808238Y-90981000D01*
X133665380Y-90933380D01*
X133570142Y-90933380D01*
X133427285Y-90981000D01*
X133379666Y-91028619D01*
X132522523Y-90933380D02*
X132713000Y-90933380D01*
X132808238Y-90981000D01*
X132855857Y-91028619D01*
X132951095Y-91171476D01*
X132998714Y-91361952D01*
X132998714Y-91742904D01*
X132951095Y-91838142D01*
X132903476Y-91885761D01*
X132808238Y-91933380D01*
X132617761Y-91933380D01*
X132522523Y-91885761D01*
X132474904Y-91838142D01*
X132427285Y-91742904D01*
X132427285Y-91504809D01*
X132474904Y-91409571D01*
X132522523Y-91361952D01*
X132617761Y-91314333D01*
X132808238Y-91314333D01*
X132903476Y-91361952D01*
X132951095Y-91409571D01*
X132998714Y-91504809D01*
X133379666Y-101427840D02*
X133713000Y-100951650D01*
X133951095Y-101427840D02*
X133951095Y-100427840D01*
X133570142Y-100427840D01*
X133474904Y-100475460D01*
X133427285Y-100523079D01*
X133379666Y-100618317D01*
X133379666Y-100761174D01*
X133427285Y-100856412D01*
X133474904Y-100904031D01*
X133570142Y-100951650D01*
X133951095Y-100951650D01*
X132427285Y-101427840D02*
X132998714Y-101427840D01*
X132713000Y-101427840D02*
X132713000Y-100427840D01*
X132808238Y-100570698D01*
X132903476Y-100665936D01*
X132998714Y-100713555D01*
X162476666Y-104585380D02*
X162810000Y-104109190D01*
X163048095Y-104585380D02*
X163048095Y-103585380D01*
X162667142Y-103585380D01*
X162571904Y-103633000D01*
X162524285Y-103680619D01*
X162476666Y-103775857D01*
X162476666Y-103918714D01*
X162524285Y-104013952D01*
X162571904Y-104061571D01*
X162667142Y-104109190D01*
X163048095Y-104109190D01*
X162143333Y-103585380D02*
X161476666Y-103585380D01*
X161905238Y-104585380D01*
X145753666Y-91933380D02*
X146087000Y-91457190D01*
X146325095Y-91933380D02*
X146325095Y-90933380D01*
X145944142Y-90933380D01*
X145848904Y-90981000D01*
X145801285Y-91028619D01*
X145753666Y-91123857D01*
X145753666Y-91266714D01*
X145801285Y-91361952D01*
X145848904Y-91409571D01*
X145944142Y-91457190D01*
X146325095Y-91457190D01*
X145277476Y-91933380D02*
X145087000Y-91933380D01*
X144991761Y-91885761D01*
X144944142Y-91838142D01*
X144848904Y-91695285D01*
X144801285Y-91504809D01*
X144801285Y-91123857D01*
X144848904Y-91028619D01*
X144896523Y-90981000D01*
X144991761Y-90933380D01*
X145182238Y-90933380D01*
X145277476Y-90981000D01*
X145325095Y-91028619D01*
X145372714Y-91123857D01*
X145372714Y-91361952D01*
X145325095Y-91457190D01*
X145277476Y-91504809D01*
X145182238Y-91552428D01*
X144991761Y-91552428D01*
X144896523Y-91504809D01*
X144848904Y-91457190D01*
X144801285Y-91361952D01*
%LPC*%
D13*
X126797000Y-77447000D03*
X121797000Y-81947000D03*
X131797000Y-81947000D03*
D14*
X126797000Y-81947000D03*
D15*
X166547000Y-94997000D03*
X115047000Y-94997000D03*
X170797000Y-119997000D03*
X170797000Y-89997000D03*
X110797000Y-119997000D03*
X110797000Y-89997000D03*
D16*
X121027000Y-130497000D03*
X123567000Y-130497000D03*
X126107000Y-130497000D03*
D15*
X128647000Y-130497000D03*
D16*
X152927000Y-130497000D03*
X155467000Y-130497000D03*
X158007000Y-130497000D03*
D15*
X160547000Y-130497000D03*
D16*
X121027000Y-110497000D03*
X123567000Y-110497000D03*
X126107000Y-110497000D03*
D15*
X128647000Y-110497000D03*
D16*
X152927000Y-110497000D03*
X155467000Y-110497000D03*
X158007000Y-110497000D03*
D15*
X160547000Y-110497000D03*
D10*
G36*
X158040000Y-94295000D02*
G01*
X158040000Y-94102812D01*
X158740000Y-94102812D01*
X158740000Y-94295000D01*
X159090000Y-94295000D01*
X159090000Y-95063750D01*
X159089691Y-95063750D01*
X159089691Y-95076324D01*
X159087226Y-95101350D01*
X159082321Y-95126014D01*
X159075021Y-95150078D01*
X159065397Y-95173311D01*
X159053543Y-95195489D01*
X159039572Y-95216398D01*
X159023619Y-95235837D01*
X159005837Y-95253619D01*
X158986398Y-95269572D01*
X158965489Y-95283543D01*
X158943311Y-95295397D01*
X158920078Y-95305021D01*
X158896014Y-95312321D01*
X158871350Y-95317226D01*
X158846324Y-95319691D01*
X158833750Y-95319691D01*
X158833750Y-95320000D01*
X157946250Y-95320000D01*
X157946250Y-95319691D01*
X157933676Y-95319691D01*
X157908650Y-95317226D01*
X157883986Y-95312321D01*
X157859922Y-95305021D01*
X157836689Y-95295397D01*
X157814511Y-95283543D01*
X157793602Y-95269572D01*
X157774163Y-95253619D01*
X157756381Y-95235837D01*
X157740428Y-95216398D01*
X157726457Y-95195489D01*
X157714603Y-95173311D01*
X157704979Y-95150078D01*
X157697679Y-95126014D01*
X157692774Y-95101350D01*
X157690309Y-95076324D01*
X157690309Y-95063750D01*
X157690000Y-95063750D01*
X157690000Y-94295000D01*
X158040000Y-94295000D01*
G37*
G36*
X158740000Y-93495000D02*
G01*
X158740000Y-93687188D01*
X158040000Y-93687188D01*
X158040000Y-93495000D01*
X157690000Y-93495000D01*
X157690000Y-92726250D01*
X157690309Y-92726250D01*
X157690309Y-92713676D01*
X157692774Y-92688650D01*
X157697679Y-92663986D01*
X157704979Y-92639922D01*
X157714603Y-92616689D01*
X157726457Y-92594511D01*
X157740428Y-92573602D01*
X157756381Y-92554163D01*
X157774163Y-92536381D01*
X157793602Y-92520428D01*
X157814511Y-92506457D01*
X157836689Y-92494603D01*
X157859922Y-92484979D01*
X157883986Y-92477679D01*
X157908650Y-92472774D01*
X157933676Y-92470309D01*
X157946250Y-92470309D01*
X157946250Y-92470000D01*
X158833750Y-92470000D01*
X158833750Y-92470309D01*
X158846324Y-92470309D01*
X158871350Y-92472774D01*
X158896014Y-92477679D01*
X158920078Y-92484979D01*
X158943311Y-92494603D01*
X158965489Y-92506457D01*
X158986398Y-92520428D01*
X159005837Y-92536381D01*
X159023619Y-92554163D01*
X159039572Y-92573602D01*
X159053543Y-92594511D01*
X159065397Y-92616689D01*
X159075021Y-92639922D01*
X159082321Y-92663986D01*
X159087226Y-92688650D01*
X159089691Y-92713676D01*
X159089691Y-92726250D01*
X159090000Y-92726250D01*
X159090000Y-93495000D01*
X158740000Y-93495000D01*
G37*
G36*
X122824000Y-94305000D02*
G01*
X122824000Y-94112812D01*
X123524000Y-94112812D01*
X123524000Y-94305000D01*
X123874000Y-94305000D01*
X123874000Y-95073750D01*
X123873691Y-95073750D01*
X123873691Y-95086324D01*
X123871226Y-95111350D01*
X123866321Y-95136014D01*
X123859021Y-95160078D01*
X123849397Y-95183311D01*
X123837543Y-95205489D01*
X123823572Y-95226398D01*
X123807619Y-95245837D01*
X123789837Y-95263619D01*
X123770398Y-95279572D01*
X123749489Y-95293543D01*
X123727311Y-95305397D01*
X123704078Y-95315021D01*
X123680014Y-95322321D01*
X123655350Y-95327226D01*
X123630324Y-95329691D01*
X123617750Y-95329691D01*
X123617750Y-95330000D01*
X122730250Y-95330000D01*
X122730250Y-95329691D01*
X122717676Y-95329691D01*
X122692650Y-95327226D01*
X122667986Y-95322321D01*
X122643922Y-95315021D01*
X122620689Y-95305397D01*
X122598511Y-95293543D01*
X122577602Y-95279572D01*
X122558163Y-95263619D01*
X122540381Y-95245837D01*
X122524428Y-95226398D01*
X122510457Y-95205489D01*
X122498603Y-95183311D01*
X122488979Y-95160078D01*
X122481679Y-95136014D01*
X122476774Y-95111350D01*
X122474309Y-95086324D01*
X122474309Y-95073750D01*
X122474000Y-95073750D01*
X122474000Y-94305000D01*
X122824000Y-94305000D01*
G37*
G36*
X123524000Y-93505000D02*
G01*
X123524000Y-93697188D01*
X122824000Y-93697188D01*
X122824000Y-93505000D01*
X122474000Y-93505000D01*
X122474000Y-92736250D01*
X122474309Y-92736250D01*
X122474309Y-92723676D01*
X122476774Y-92698650D01*
X122481679Y-92673986D01*
X122488979Y-92649922D01*
X122498603Y-92626689D01*
X122510457Y-92604511D01*
X122524428Y-92583602D01*
X122540381Y-92564163D01*
X122558163Y-92546381D01*
X122577602Y-92530428D01*
X122598511Y-92516457D01*
X122620689Y-92504603D01*
X122643922Y-92494979D01*
X122667986Y-92487679D01*
X122692650Y-92482774D01*
X122717676Y-92480309D01*
X122730250Y-92480309D01*
X122730250Y-92480000D01*
X123617750Y-92480000D01*
X123617750Y-92480309D01*
X123630324Y-92480309D01*
X123655350Y-92482774D01*
X123680014Y-92487679D01*
X123704078Y-92494979D01*
X123727311Y-92504603D01*
X123749489Y-92516457D01*
X123770398Y-92530428D01*
X123789837Y-92546381D01*
X123807619Y-92564163D01*
X123823572Y-92583602D01*
X123837543Y-92604511D01*
X123849397Y-92626689D01*
X123859021Y-92649922D01*
X123866321Y-92673986D01*
X123871226Y-92698650D01*
X123873691Y-92723676D01*
X123873691Y-92736250D01*
X123874000Y-92736250D01*
X123874000Y-93505000D01*
X123524000Y-93505000D01*
G37*
D17*
X149797000Y-79747000D03*
X149797000Y-77247000D03*
X154797000Y-84747000D03*
X159797000Y-79747000D03*
X159797000Y-77247000D03*
D18*
X159797000Y-84747000D03*
X149797000Y-84747000D03*
D19*
X154797000Y-79747000D03*
G36*
G01*
X121302500Y-103810000D02*
X122252500Y-103810000D01*
G75*
G02*
X122502500Y-104060000I0J-250000D01*
G01*
X122502500Y-104560000D01*
G75*
G02*
X122252500Y-104810000I-250000J0D01*
G01*
X121302500Y-104810000D01*
G75*
G02*
X121052500Y-104560000I0J250000D01*
G01*
X121052500Y-104060000D01*
G75*
G02*
X121302500Y-103810000I250000J0D01*
G01*
G37*
G36*
G01*
X121302500Y-101910000D02*
X122252500Y-101910000D01*
G75*
G02*
X122502500Y-102160000I0J-250000D01*
G01*
X122502500Y-102660000D01*
G75*
G02*
X122252500Y-102910000I-250000J0D01*
G01*
X121302500Y-102910000D01*
G75*
G02*
X121052500Y-102660000I0J250000D01*
G01*
X121052500Y-102160000D01*
G75*
G02*
X121302500Y-101910000I250000J0D01*
G01*
G37*
D20*
X158390000Y-96513000D03*
X161183000Y-96513000D03*
X131801500Y-96240000D03*
X121777500Y-96250000D03*
G36*
G01*
X129939998Y-92490000D02*
X130840002Y-92490000D01*
G75*
G02*
X131090000Y-92739998I0J-249998D01*
G01*
X131090000Y-93265002D01*
G75*
G02*
X130840002Y-93515000I-249998J0D01*
G01*
X129939998Y-93515000D01*
G75*
G02*
X129690000Y-93265002I0J249998D01*
G01*
X129690000Y-92739998D01*
G75*
G02*
X129939998Y-92490000I249998J0D01*
G01*
G37*
G36*
G01*
X129939998Y-94315000D02*
X130840002Y-94315000D01*
G75*
G02*
X131090000Y-94564998I0J-249998D01*
G01*
X131090000Y-95090002D01*
G75*
G02*
X130840002Y-95340000I-249998J0D01*
G01*
X129939998Y-95340000D01*
G75*
G02*
X129690000Y-95090002I0J249998D01*
G01*
X129690000Y-94564998D01*
G75*
G02*
X129939998Y-94315000I249998J0D01*
G01*
G37*
G36*
G01*
X152056000Y-97884999D02*
X152056000Y-99285001D01*
G75*
G02*
X151806001Y-99535000I-249999J0D01*
G01*
X151255999Y-99535000D01*
G75*
G02*
X151006000Y-99285001I0J249999D01*
G01*
X151006000Y-97884999D01*
G75*
G02*
X151255999Y-97635000I249999J0D01*
G01*
X151806001Y-97635000D01*
G75*
G02*
X152056000Y-97884999I0J-249999D01*
G01*
G37*
G36*
G01*
X148906000Y-97884999D02*
X148906000Y-99285001D01*
G75*
G02*
X148656001Y-99535000I-249999J0D01*
G01*
X148105999Y-99535000D01*
G75*
G02*
X147856000Y-99285001I0J249999D01*
G01*
X147856000Y-97884999D01*
G75*
G02*
X148105999Y-97635000I249999J0D01*
G01*
X148656001Y-97635000D01*
G75*
G02*
X148906000Y-97884999I0J-249999D01*
G01*
G37*
G36*
G01*
X160732998Y-92470000D02*
X161633002Y-92470000D01*
G75*
G02*
X161883000Y-92719998I0J-249998D01*
G01*
X161883000Y-93245002D01*
G75*
G02*
X161633002Y-93495000I-249998J0D01*
G01*
X160732998Y-93495000D01*
G75*
G02*
X160483000Y-93245002I0J249998D01*
G01*
X160483000Y-92719998D01*
G75*
G02*
X160732998Y-92470000I249998J0D01*
G01*
G37*
G36*
G01*
X160732998Y-94295000D02*
X161633002Y-94295000D01*
G75*
G02*
X161883000Y-94544998I0J-249998D01*
G01*
X161883000Y-95070002D01*
G75*
G02*
X161633002Y-95320000I-249998J0D01*
G01*
X160732998Y-95320000D01*
G75*
G02*
X160483000Y-95070002I0J249998D01*
G01*
X160483000Y-94544998D01*
G75*
G02*
X160732998Y-94295000I249998J0D01*
G01*
G37*
G36*
G01*
X146849999Y-101991000D02*
X148150001Y-101991000D01*
G75*
G02*
X148400000Y-102240999I0J-249999D01*
G01*
X148400000Y-102891001D01*
G75*
G02*
X148150001Y-103141000I-249999J0D01*
G01*
X146849999Y-103141000D01*
G75*
G02*
X146600000Y-102891001I0J249999D01*
G01*
X146600000Y-102240999D01*
G75*
G02*
X146849999Y-101991000I249999J0D01*
G01*
G37*
G36*
G01*
X146849999Y-104941000D02*
X148150001Y-104941000D01*
G75*
G02*
X148400000Y-105190999I0J-249999D01*
G01*
X148400000Y-105841001D01*
G75*
G02*
X148150001Y-106091000I-249999J0D01*
G01*
X146849999Y-106091000D01*
G75*
G02*
X146600000Y-105841001I0J249999D01*
G01*
X146600000Y-105190999D01*
G75*
G02*
X146849999Y-104941000I249999J0D01*
G01*
G37*
D15*
X154197000Y-105516000D03*
D16*
X156737000Y-105516000D03*
X159277000Y-105516000D03*
G36*
G01*
X145272000Y-102584000D02*
X144322000Y-102584000D01*
G75*
G02*
X144072000Y-102334000I0J250000D01*
G01*
X144072000Y-101834000D01*
G75*
G02*
X144322000Y-101584000I250000J0D01*
G01*
X145272000Y-101584000D01*
G75*
G02*
X145522000Y-101834000I0J-250000D01*
G01*
X145522000Y-102334000D01*
G75*
G02*
X145272000Y-102584000I-250000J0D01*
G01*
G37*
G36*
G01*
X145272000Y-100684000D02*
X144322000Y-100684000D01*
G75*
G02*
X144072000Y-100434000I0J250000D01*
G01*
X144072000Y-99934000D01*
G75*
G02*
X144322000Y-99684000I250000J0D01*
G01*
X145272000Y-99684000D01*
G75*
G02*
X145522000Y-99934000I0J-250000D01*
G01*
X145522000Y-100434000D01*
G75*
G02*
X145272000Y-100684000I-250000J0D01*
G01*
G37*
G36*
G01*
X151584002Y-107853500D02*
X150683998Y-107853500D01*
G75*
G02*
X150434000Y-107603502I0J249998D01*
G01*
X150434000Y-107078498D01*
G75*
G02*
X150683998Y-106828500I249998J0D01*
G01*
X151584002Y-106828500D01*
G75*
G02*
X151834000Y-107078498I0J-249998D01*
G01*
X151834000Y-107603502D01*
G75*
G02*
X151584002Y-107853500I-249998J0D01*
G01*
G37*
G36*
G01*
X151584002Y-106028500D02*
X150683998Y-106028500D01*
G75*
G02*
X150434000Y-105778502I0J249998D01*
G01*
X150434000Y-105253498D01*
G75*
G02*
X150683998Y-105003500I249998J0D01*
G01*
X151584002Y-105003500D01*
G75*
G02*
X151834000Y-105253498I0J-249998D01*
G01*
X151834000Y-105778502D01*
G75*
G02*
X151584002Y-106028500I-249998J0D01*
G01*
G37*
D15*
X138272000Y-78731000D03*
D16*
X140812000Y-78731000D03*
X143352000Y-78731000D03*
G36*
G01*
X123624002Y-100010000D02*
X122723998Y-100010000D01*
G75*
G02*
X122474000Y-99760002I0J249998D01*
G01*
X122474000Y-99234998D01*
G75*
G02*
X122723998Y-98985000I249998J0D01*
G01*
X123624002Y-98985000D01*
G75*
G02*
X123874000Y-99234998I0J-249998D01*
G01*
X123874000Y-99760002D01*
G75*
G02*
X123624002Y-100010000I-249998J0D01*
G01*
G37*
G36*
G01*
X123624002Y-98185000D02*
X122723998Y-98185000D01*
G75*
G02*
X122474000Y-97935002I0J249998D01*
G01*
X122474000Y-97409998D01*
G75*
G02*
X122723998Y-97160000I249998J0D01*
G01*
X123624002Y-97160000D01*
G75*
G02*
X123874000Y-97409998I0J-249998D01*
G01*
X123874000Y-97935002D01*
G75*
G02*
X123624002Y-98185000I-249998J0D01*
G01*
G37*
G36*
G01*
X119930998Y-97160000D02*
X120831002Y-97160000D01*
G75*
G02*
X121081000Y-97409998I0J-249998D01*
G01*
X121081000Y-97935002D01*
G75*
G02*
X120831002Y-98185000I-249998J0D01*
G01*
X119930998Y-98185000D01*
G75*
G02*
X119681000Y-97935002I0J249998D01*
G01*
X119681000Y-97409998D01*
G75*
G02*
X119930998Y-97160000I249998J0D01*
G01*
G37*
G36*
G01*
X119930998Y-98985000D02*
X120831002Y-98985000D01*
G75*
G02*
X121081000Y-99234998I0J-249998D01*
G01*
X121081000Y-99760002D01*
G75*
G02*
X120831002Y-100010000I-249998J0D01*
G01*
X119930998Y-100010000D01*
G75*
G02*
X119681000Y-99760002I0J249998D01*
G01*
X119681000Y-99234998D01*
G75*
G02*
X119930998Y-98985000I249998J0D01*
G01*
G37*
G36*
G01*
X147930998Y-92470000D02*
X148831002Y-92470000D01*
G75*
G02*
X149081000Y-92719998I0J-249998D01*
G01*
X149081000Y-93245002D01*
G75*
G02*
X148831002Y-93495000I-249998J0D01*
G01*
X147930998Y-93495000D01*
G75*
G02*
X147681000Y-93245002I0J249998D01*
G01*
X147681000Y-92719998D01*
G75*
G02*
X147930998Y-92470000I249998J0D01*
G01*
G37*
G36*
G01*
X147930998Y-94295000D02*
X148831002Y-94295000D01*
G75*
G02*
X149081000Y-94544998I0J-249998D01*
G01*
X149081000Y-95070002D01*
G75*
G02*
X148831002Y-95320000I-249998J0D01*
G01*
X147930998Y-95320000D01*
G75*
G02*
X147681000Y-95070002I0J249998D01*
G01*
X147681000Y-94544998D01*
G75*
G02*
X147930998Y-94295000I249998J0D01*
G01*
G37*
D21*
X156389500Y-101720000D03*
X154189500Y-101720000D03*
G36*
G01*
X133387999Y-101991000D02*
X134688001Y-101991000D01*
G75*
G02*
X134938000Y-102240999I0J-249999D01*
G01*
X134938000Y-102891001D01*
G75*
G02*
X134688001Y-103141000I-249999J0D01*
G01*
X133387999Y-103141000D01*
G75*
G02*
X133138000Y-102891001I0J249999D01*
G01*
X133138000Y-102240999D01*
G75*
G02*
X133387999Y-101991000I249999J0D01*
G01*
G37*
G36*
G01*
X133387999Y-104941000D02*
X134688001Y-104941000D01*
G75*
G02*
X134938000Y-105190999I0J-249999D01*
G01*
X134938000Y-105841001D01*
G75*
G02*
X134688001Y-106091000I-249999J0D01*
G01*
X133387999Y-106091000D01*
G75*
G02*
X133138000Y-105841001I0J249999D01*
G01*
X133138000Y-105190999D01*
G75*
G02*
X133387999Y-104941000I249999J0D01*
G01*
G37*
G36*
G01*
X137272000Y-102584000D02*
X136322000Y-102584000D01*
G75*
G02*
X136072000Y-102334000I0J250000D01*
G01*
X136072000Y-101834000D01*
G75*
G02*
X136322000Y-101584000I250000J0D01*
G01*
X137272000Y-101584000D01*
G75*
G02*
X137522000Y-101834000I0J-250000D01*
G01*
X137522000Y-102334000D01*
G75*
G02*
X137272000Y-102584000I-250000J0D01*
G01*
G37*
G36*
G01*
X137272000Y-100684000D02*
X136322000Y-100684000D01*
G75*
G02*
X136072000Y-100434000I0J250000D01*
G01*
X136072000Y-99934000D01*
G75*
G02*
X136322000Y-99684000I250000J0D01*
G01*
X137272000Y-99684000D01*
G75*
G02*
X137522000Y-99934000I0J-250000D01*
G01*
X137522000Y-100434000D01*
G75*
G02*
X137272000Y-100684000I-250000J0D01*
G01*
G37*
D22*
X155747000Y-99585000D03*
X153847000Y-99585000D03*
X154797000Y-97585000D03*
X127717000Y-99585000D03*
X125817000Y-99585000D03*
X126767000Y-97585000D03*
D23*
X125572000Y-90105000D03*
X128112000Y-92645000D03*
X125572000Y-95185000D03*
G36*
G01*
X130865000Y-100035000D02*
X129915000Y-100035000D01*
G75*
G02*
X129665000Y-99785000I0J250000D01*
G01*
X129665000Y-99285000D01*
G75*
G02*
X129915000Y-99035000I250000J0D01*
G01*
X130865000Y-99035000D01*
G75*
G02*
X131115000Y-99285000I0J-250000D01*
G01*
X131115000Y-99785000D01*
G75*
G02*
X130865000Y-100035000I-250000J0D01*
G01*
G37*
G36*
G01*
X130865000Y-98135000D02*
X129915000Y-98135000D01*
G75*
G02*
X129665000Y-97885000I0J250000D01*
G01*
X129665000Y-97385000D01*
G75*
G02*
X129915000Y-97135000I250000J0D01*
G01*
X130865000Y-97135000D01*
G75*
G02*
X131115000Y-97385000I0J-250000D01*
G01*
X131115000Y-97885000D01*
G75*
G02*
X130865000Y-98135000I-250000J0D01*
G01*
G37*
D24*
X142347000Y-102084000D03*
X139347000Y-102084000D03*
D10*
G36*
X141713500Y-98134000D02*
G01*
X141713500Y-101259000D01*
X141297000Y-101259000D01*
X141297000Y-102734000D01*
X140397000Y-102734000D01*
X140397000Y-101259000D01*
X139980500Y-101259000D01*
X139980500Y-98134000D01*
X141713500Y-98134000D01*
G37*
G36*
G01*
X151624002Y-95320000D02*
X150723998Y-95320000D01*
G75*
G02*
X150474000Y-95070002I0J249998D01*
G01*
X150474000Y-94544998D01*
G75*
G02*
X150723998Y-94295000I249998J0D01*
G01*
X151624002Y-94295000D01*
G75*
G02*
X151874000Y-94544998I0J-249998D01*
G01*
X151874000Y-95070002D01*
G75*
G02*
X151624002Y-95320000I-249998J0D01*
G01*
G37*
G36*
G01*
X151624002Y-93495000D02*
X150723998Y-93495000D01*
G75*
G02*
X150474000Y-93245002I0J249998D01*
G01*
X150474000Y-92719998D01*
G75*
G02*
X150723998Y-92470000I249998J0D01*
G01*
X151624002Y-92470000D01*
G75*
G02*
X151874000Y-92719998I0J-249998D01*
G01*
X151874000Y-93245002D01*
G75*
G02*
X151624002Y-93495000I-249998J0D01*
G01*
G37*
G36*
G01*
X120831002Y-95340000D02*
X119930998Y-95340000D01*
G75*
G02*
X119681000Y-95090002I0J249998D01*
G01*
X119681000Y-94564998D01*
G75*
G02*
X119930998Y-94315000I249998J0D01*
G01*
X120831002Y-94315000D01*
G75*
G02*
X121081000Y-94564998I0J-249998D01*
G01*
X121081000Y-95090002D01*
G75*
G02*
X120831002Y-95340000I-249998J0D01*
G01*
G37*
G36*
G01*
X120831002Y-93515000D02*
X119930998Y-93515000D01*
G75*
G02*
X119681000Y-93265002I0J249998D01*
G01*
X119681000Y-92739998D01*
G75*
G02*
X119930998Y-92490000I249998J0D01*
G01*
X120831002Y-92490000D01*
G75*
G02*
X121081000Y-92739998I0J-249998D01*
G01*
X121081000Y-93265002D01*
G75*
G02*
X120831002Y-93515000I-249998J0D01*
G01*
G37*
G36*
G01*
X133688000Y-95345000D02*
X132738000Y-95345000D01*
G75*
G02*
X132488000Y-95095000I0J250000D01*
G01*
X132488000Y-94595000D01*
G75*
G02*
X132738000Y-94345000I250000J0D01*
G01*
X133688000Y-94345000D01*
G75*
G02*
X133938000Y-94595000I0J-250000D01*
G01*
X133938000Y-95095000D01*
G75*
G02*
X133688000Y-95345000I-250000J0D01*
G01*
G37*
G36*
G01*
X133688000Y-93445000D02*
X132738000Y-93445000D01*
G75*
G02*
X132488000Y-93195000I0J250000D01*
G01*
X132488000Y-92695000D01*
G75*
G02*
X132738000Y-92445000I250000J0D01*
G01*
X133688000Y-92445000D01*
G75*
G02*
X133938000Y-92695000I0J-250000D01*
G01*
X133938000Y-93195000D01*
G75*
G02*
X133688000Y-93445000I-250000J0D01*
G01*
G37*
G36*
G01*
X133663002Y-100010000D02*
X132762998Y-100010000D01*
G75*
G02*
X132513000Y-99760002I0J249998D01*
G01*
X132513000Y-99234998D01*
G75*
G02*
X132762998Y-98985000I249998J0D01*
G01*
X133663002Y-98985000D01*
G75*
G02*
X133913000Y-99234998I0J-249998D01*
G01*
X133913000Y-99760002D01*
G75*
G02*
X133663002Y-100010000I-249998J0D01*
G01*
G37*
G36*
G01*
X133663002Y-98185000D02*
X132762998Y-98185000D01*
G75*
G02*
X132513000Y-97935002I0J249998D01*
G01*
X132513000Y-97409998D01*
G75*
G02*
X132762998Y-97160000I249998J0D01*
G01*
X133663002Y-97160000D01*
G75*
G02*
X133913000Y-97409998I0J-249998D01*
G01*
X133913000Y-97935002D01*
G75*
G02*
X133663002Y-98185000I-249998J0D01*
G01*
G37*
G36*
G01*
X162760002Y-107853500D02*
X161859998Y-107853500D01*
G75*
G02*
X161610000Y-107603502I0J249998D01*
G01*
X161610000Y-107078498D01*
G75*
G02*
X161859998Y-106828500I249998J0D01*
G01*
X162760002Y-106828500D01*
G75*
G02*
X163010000Y-107078498I0J-249998D01*
G01*
X163010000Y-107603502D01*
G75*
G02*
X162760002Y-107853500I-249998J0D01*
G01*
G37*
G36*
G01*
X162760002Y-106028500D02*
X161859998Y-106028500D01*
G75*
G02*
X161610000Y-105778502I0J249998D01*
G01*
X161610000Y-105253498D01*
G75*
G02*
X161859998Y-105003500I249998J0D01*
G01*
X162760002Y-105003500D01*
G75*
G02*
X163010000Y-105253498I0J-249998D01*
G01*
X163010000Y-105778502D01*
G75*
G02*
X162760002Y-106028500I-249998J0D01*
G01*
G37*
D23*
X153572000Y-90105000D03*
X156112000Y-92645000D03*
X153572000Y-95185000D03*
G36*
G01*
X146037002Y-95320000D02*
X145136998Y-95320000D01*
G75*
G02*
X144887000Y-95070002I0J249998D01*
G01*
X144887000Y-94544998D01*
G75*
G02*
X145136998Y-94295000I249998J0D01*
G01*
X146037002Y-94295000D01*
G75*
G02*
X146287000Y-94544998I0J-249998D01*
G01*
X146287000Y-95070002D01*
G75*
G02*
X146037002Y-95320000I-249998J0D01*
G01*
G37*
G36*
G01*
X146037002Y-93495000D02*
X145136998Y-93495000D01*
G75*
G02*
X144887000Y-93245002I0J249998D01*
G01*
X144887000Y-92719998D01*
G75*
G02*
X145136998Y-92470000I249998J0D01*
G01*
X146037002Y-92470000D01*
G75*
G02*
X146287000Y-92719998I0J-249998D01*
G01*
X146287000Y-93245002D01*
G75*
G02*
X146037002Y-93495000I-249998J0D01*
G01*
G37*
D20*
X139450000Y-92963750D03*
X149956000Y-101720000D03*
X149956000Y-96513000D03*
D15*
X143322000Y-105516000D03*
D16*
X140782000Y-105516000D03*
X138242000Y-105516000D03*
M02*
