%TF.GenerationSoftware,KiCad,Pcbnew,(6.0.1)*%
%TF.CreationDate,2022-01-30T12:56:23-05:00*%
%TF.ProjectId,C64-Composite-Modulator,4336342d-436f-46d7-906f-736974652d4d,0825*%
%TF.SameCoordinates,Original*%
%TF.FileFunction,Profile,NP*%
%FSLAX46Y46*%
G04 Gerber Fmt 4.6, Leading zero omitted, Abs format (unit mm)*
G04 Created by KiCad (PCBNEW (6.0.1)) date 2022-01-30 12:56:23*
%MOMM*%
%LPD*%
G01*
G04 APERTURE LIST*
%TA.AperFunction,Profile*%
%ADD10C,0.038100*%
%TD*%
G04 APERTURE END LIST*
D10*
X166182000Y-92627950D02*
X166182000Y-92727950D01*
X124582000Y-134627950D02*
X124282000Y-134627950D01*
X115582000Y-97027950D02*
G75*
G03*
X115382000Y-97227950I1J-200001D01*
G01*
X124782000Y-134827950D02*
X124782000Y-135027950D01*
X115382000Y-118227950D02*
X115382000Y-118127950D01*
X138782000Y-76227950D02*
X139082000Y-76227950D01*
X165582000Y-93827950D02*
G75*
G03*
X165782000Y-94027950I200001J1D01*
G01*
X115382000Y-93827950D02*
X115382000Y-93727950D01*
X165582000Y-116427950D02*
G75*
G03*
X164582000Y-115427950I-999999J1D01*
G01*
X129882000Y-115027950D02*
X129882000Y-115227950D01*
X128582000Y-134927950D02*
G75*
G03*
X128282000Y-134627950I-300000J0D01*
G01*
X165782000Y-89427950D02*
X165982000Y-89427950D01*
X166182000Y-92627950D02*
G75*
G03*
X165982000Y-92427950I-200001J-1D01*
G01*
X161682000Y-115427950D02*
X164582000Y-115427950D01*
X115382000Y-89227950D02*
G75*
G03*
X115582000Y-89427950I200001J1D01*
G01*
X115382000Y-121727950D02*
X115382000Y-121627950D01*
X166182000Y-97227950D02*
G75*
G03*
X165982000Y-97027950I-200001J-1D01*
G01*
X138182000Y-115627950D02*
G75*
G03*
X137982000Y-115427950I-200001J-1D01*
G01*
X166182000Y-118127950D02*
X166182000Y-118227950D01*
X142582000Y-75627950D02*
G75*
G03*
X142782000Y-75427950I-1J200001D01*
G01*
X157582000Y-134927950D02*
X157582000Y-135527950D01*
X161682000Y-114827950D02*
G75*
G03*
X161482000Y-115027950I1J-200001D01*
G01*
X161682000Y-114827950D02*
X164582000Y-114827950D01*
X119882000Y-114827950D02*
X116982000Y-114827950D01*
X152682000Y-135827950D02*
X128882000Y-135827950D01*
X110382000Y-88927950D02*
X115182000Y-88927950D01*
X115782000Y-89427950D02*
G75*
G03*
X115982000Y-89227950I-1J200001D01*
G01*
X156782000Y-134827950D02*
X156782000Y-135027950D01*
X110382000Y-92927950D02*
X115182000Y-92927950D01*
X157582000Y-135527950D02*
G75*
G03*
X157882000Y-135827950I300000J0D01*
G01*
X153282000Y-135827950D02*
X153282000Y-135427950D01*
X157282000Y-135427950D02*
G75*
G03*
X157082000Y-135227950I-200001J-1D01*
G01*
X128582000Y-135527950D02*
G75*
G03*
X128882000Y-135827950I300000J0D01*
G01*
X166182000Y-121627950D02*
X166182000Y-121727950D01*
X142282000Y-76027950D02*
G75*
G03*
X142482000Y-76227950I200001J1D01*
G01*
X138182000Y-116027950D02*
G75*
G03*
X143382000Y-116027950I2600000J0D01*
G01*
X130082000Y-114827950D02*
G75*
G03*
X129882000Y-115027950I1J-200001D01*
G01*
X143382000Y-75027950D02*
X164582000Y-75027950D01*
X116982000Y-75027950D02*
G75*
G03*
X115982000Y-76027950I-1J-999999D01*
G01*
X166182000Y-97327950D02*
G75*
G03*
X166382000Y-97527950I200001J1D01*
G01*
X115382000Y-93727950D02*
G75*
G03*
X115182000Y-93527950I-200001J-1D01*
G01*
X138482000Y-75327950D02*
G75*
G03*
X138182000Y-75027950I-300000J0D01*
G01*
X142782000Y-115627950D02*
X142782000Y-116027950D01*
X128282000Y-134627950D02*
X127982000Y-134627950D01*
X119882000Y-115427950D02*
X116982000Y-115427950D01*
X142782000Y-75427950D02*
X142782000Y-74927950D01*
X115382000Y-97327950D02*
X115382000Y-97227950D01*
X157082000Y-135227950D02*
X156982000Y-135227950D01*
X115582000Y-121427950D02*
G75*
G03*
X115382000Y-121627950I1J-200001D01*
G01*
X115982000Y-113827950D02*
X115982000Y-97227950D01*
X171182000Y-121927941D02*
X166382000Y-121927950D01*
X171182000Y-88927950D02*
X166382000Y-88927950D01*
X130082000Y-114827950D02*
X139082000Y-114827950D01*
X165582000Y-118227950D02*
G75*
G03*
X165782000Y-118427950I200001J1D01*
G01*
X164582000Y-135827949D02*
X157882000Y-135827950D01*
X165782000Y-97027950D02*
G75*
G03*
X165582000Y-97227950I1J-200001D01*
G01*
X110382000Y-88927950D02*
G75*
G03*
X110382000Y-92927950I0J-2000000D01*
G01*
X124782000Y-134827950D02*
G75*
G03*
X124582000Y-134627950I-200001J-1D01*
G01*
X128282000Y-135427950D02*
G75*
G03*
X128082000Y-135227950I-200001J-1D01*
G01*
X124282000Y-135827950D02*
G75*
G03*
X128282000Y-135827950I2000000J0D01*
G01*
X156782000Y-135027950D02*
G75*
G03*
X156982000Y-135227950I200001J1D01*
G01*
X116982000Y-115427950D02*
G75*
G03*
X115982000Y-116427950I3J-1000003D01*
G01*
X115782000Y-121427950D02*
X115582000Y-121427950D01*
X115782000Y-94027950D02*
G75*
G03*
X115982000Y-93827950I-1J200001D01*
G01*
X142782000Y-115627950D02*
G75*
G03*
X142582000Y-115427950I-200001J-1D01*
G01*
X143582000Y-115427950D02*
X151482000Y-115427950D01*
X115782000Y-118427950D02*
X115582000Y-118427950D01*
X165582000Y-89227950D02*
X165582000Y-76027950D01*
X139282000Y-75827950D02*
G75*
G03*
X139082000Y-75627950I-200001J-1D01*
G01*
X165982000Y-89427950D02*
G75*
G03*
X166182000Y-89227950I-1J200001D01*
G01*
X171182000Y-92927950D02*
G75*
G03*
X171182000Y-88927950I0J2000000D01*
G01*
X157282000Y-134627950D02*
X156982000Y-134627950D01*
X165782000Y-121427950D02*
X165982000Y-121427950D01*
X153582000Y-134627950D02*
X153282000Y-134627950D01*
X139082000Y-115427950D02*
G75*
G03*
X139282000Y-115227950I-1J200001D01*
G01*
X128082000Y-135227950D02*
X127982000Y-135227950D01*
X166782000Y-97527950D02*
X166382000Y-97527950D01*
X115982000Y-97227950D02*
G75*
G03*
X115782000Y-97027950I-200001J-1D01*
G01*
X156982000Y-134627950D02*
G75*
G03*
X156782000Y-134827950I1J-200001D01*
G01*
X166782000Y-93527950D02*
X166382000Y-93527950D01*
X166182000Y-121627950D02*
G75*
G03*
X165982000Y-121427950I-200001J-1D01*
G01*
X142482000Y-76227950D02*
X142782000Y-76227950D01*
X151482000Y-115427950D02*
G75*
G03*
X151682000Y-115227950I-1J200001D01*
G01*
X143582000Y-115427950D02*
G75*
G03*
X143382000Y-115627950I1J-200001D01*
G01*
X128282000Y-135427950D02*
X128282000Y-135827950D01*
X165982000Y-118427950D02*
G75*
G03*
X166182000Y-118227950I-1J200001D01*
G01*
X115982000Y-92627950D02*
G75*
G03*
X115782000Y-92427950I-200001J-1D01*
G01*
X142282000Y-76027950D02*
X142282000Y-75827950D01*
X115382000Y-89227950D02*
X115382000Y-89127950D01*
X153582000Y-135227950D02*
X153482000Y-135227950D01*
X153282000Y-134627950D02*
G75*
G03*
X152982000Y-134927950I0J-300000D01*
G01*
X116982000Y-135827950D02*
X123682000Y-135827950D01*
X127982000Y-134627950D02*
G75*
G03*
X127782000Y-134827950I1J-200001D01*
G01*
X115182000Y-97527950D02*
G75*
G03*
X115382000Y-97327950I-1J200001D01*
G01*
X116982000Y-75027950D02*
X138182000Y-75027950D01*
X138782000Y-74927950D02*
X138782000Y-75427950D01*
X123682000Y-135827950D02*
G75*
G03*
X123982000Y-135527950I0J300000D01*
G01*
X127782000Y-134827950D02*
X127782000Y-135027950D01*
X119882000Y-115427950D02*
G75*
G03*
X120082000Y-115227950I-1J200001D01*
G01*
X143082000Y-75327950D02*
X143082000Y-75627950D01*
X115382000Y-118127950D02*
G75*
G03*
X115182000Y-117927950I-200001J-1D01*
G01*
X166782000Y-97527950D02*
G75*
G03*
X166782000Y-93527950I0J2000000D01*
G01*
X142782000Y-74927950D02*
G75*
G03*
X138782000Y-74927950I-2000000J0D01*
G01*
X142582000Y-115427950D02*
X142482000Y-115427950D01*
X142782000Y-76227950D02*
G75*
G03*
X143082000Y-75927950I0J300000D01*
G01*
X115782000Y-92427950D02*
X115582000Y-92427950D01*
X142282000Y-115227950D02*
G75*
G03*
X142482000Y-115427950I200001J1D01*
G01*
X142282000Y-115027950D02*
X142282000Y-115227950D01*
X138782000Y-115627950D02*
X138782000Y-116027950D01*
X115782000Y-94027950D02*
X115582000Y-94027950D01*
X165782000Y-92427950D02*
G75*
G03*
X165582000Y-92627950I1J-200001D01*
G01*
X166182000Y-93727950D02*
X166182000Y-93827950D01*
X153282000Y-135827950D02*
G75*
G03*
X157282000Y-135827950I2000000J0D01*
G01*
X165782000Y-118427950D02*
X165982000Y-118427950D01*
X139082000Y-76227950D02*
G75*
G03*
X139282000Y-76027950I-1J200001D01*
G01*
X138782000Y-116027950D02*
G75*
G03*
X142782000Y-116027950I2000000J0D01*
G01*
X166382000Y-93527950D02*
G75*
G03*
X166182000Y-93727950I1J-200001D01*
G01*
X120082000Y-115027950D02*
G75*
G03*
X119882000Y-114827950I-200001J-1D01*
G01*
X115982000Y-89227950D02*
X115982000Y-76027950D01*
X142482000Y-114827950D02*
G75*
G03*
X142282000Y-115027950I1J-200001D01*
G01*
X138982000Y-75627950D02*
X139082000Y-75627950D01*
X130082000Y-115427950D02*
X137982000Y-115427950D01*
X166382000Y-117927950D02*
G75*
G03*
X166182000Y-118127950I1J-200001D01*
G01*
X129882000Y-115227950D02*
G75*
G03*
X130082000Y-115427950I200001J1D01*
G01*
X115582000Y-92427950D02*
G75*
G03*
X115382000Y-92627950I1J-200001D01*
G01*
X124282000Y-134627950D02*
G75*
G03*
X123982000Y-134927950I0J-300000D01*
G01*
X124582000Y-135227950D02*
X124482000Y-135227950D01*
X165582000Y-116427950D02*
X165582000Y-118227950D01*
X115782000Y-97027950D02*
X115582000Y-97027950D01*
X124482000Y-135227950D02*
G75*
G03*
X124282000Y-135427950I1J-200001D01*
G01*
X152982000Y-134927950D02*
X152982000Y-135527950D01*
X165582000Y-89227950D02*
G75*
G03*
X165782000Y-89427950I200001J1D01*
G01*
X115382000Y-92727950D02*
X115382000Y-92627950D01*
X115182000Y-92927950D02*
G75*
G03*
X115382000Y-92727950I-1J200001D01*
G01*
X115382000Y-89127950D02*
G75*
G03*
X115182000Y-88927950I-200001J-1D01*
G01*
X166182000Y-97227950D02*
X166182000Y-97327950D01*
X110382000Y-117927950D02*
X115182000Y-117927950D01*
X115982000Y-121627950D02*
X115982000Y-134827950D01*
X143082000Y-75927950D02*
X143082000Y-75627950D01*
X166382000Y-88927950D02*
G75*
G03*
X166182000Y-89127950I1J-200001D01*
G01*
X165582000Y-76027950D02*
G75*
G03*
X164582000Y-75027950I-999999J1D01*
G01*
X115982000Y-121627950D02*
G75*
G03*
X115782000Y-121427950I-200001J-1D01*
G01*
X139082000Y-115427950D02*
X138982000Y-115427950D01*
X114782000Y-97527950D02*
X115182000Y-97527950D01*
X139282000Y-115027950D02*
G75*
G03*
X139082000Y-114827950I-200001J-1D01*
G01*
X115382000Y-118227950D02*
G75*
G03*
X115582000Y-118427950I200001J1D01*
G01*
X142482000Y-75627950D02*
X142582000Y-75627950D01*
X139282000Y-115027950D02*
X139282000Y-115227950D01*
X124282000Y-135827950D02*
X124282000Y-135427950D01*
X138482000Y-75327950D02*
X138482000Y-75927950D01*
X138482000Y-75927950D02*
G75*
G03*
X138782000Y-76227950I300000J0D01*
G01*
X138982000Y-115427950D02*
G75*
G03*
X138782000Y-115627950I1J-200001D01*
G01*
X165782000Y-92427950D02*
X165982000Y-92427950D01*
X110382000Y-121927950D02*
X115182000Y-121927950D01*
X151682000Y-115027950D02*
G75*
G03*
X151482000Y-114827950I-200001J-1D01*
G01*
X165782000Y-97027950D02*
X165982000Y-97027950D01*
X142482000Y-75627950D02*
G75*
G03*
X142282000Y-75827950I1J-200001D01*
G01*
X165582000Y-121627950D02*
X165582000Y-134827950D01*
X165982000Y-94027950D02*
G75*
G03*
X166182000Y-93827950I-1J200001D01*
G01*
X114782000Y-93527950D02*
X115182000Y-93527950D01*
X157582000Y-134927950D02*
G75*
G03*
X157282000Y-134627950I-300000J0D01*
G01*
X164582000Y-114827950D02*
G75*
G03*
X165582000Y-113827950I1J999999D01*
G01*
X115782000Y-118427950D02*
G75*
G03*
X115982000Y-118227950I-1J200001D01*
G01*
X115782000Y-89427950D02*
X115582000Y-89427950D01*
X157282000Y-135827950D02*
X157282000Y-135427950D01*
X138182000Y-116027950D02*
X138182000Y-115627950D01*
X115182000Y-121927950D02*
G75*
G03*
X115382000Y-121727950I-1J200001D01*
G01*
X123982000Y-134927950D02*
X123982000Y-135527950D01*
X152682000Y-135827950D02*
G75*
G03*
X152982000Y-135527950I0J300000D01*
G01*
X153782000Y-134827950D02*
G75*
G03*
X153582000Y-134627950I-200001J-1D01*
G01*
X165582000Y-92627950D02*
X165582000Y-93827950D01*
X165782000Y-94027950D02*
X165982000Y-94027950D01*
X115982000Y-113827950D02*
G75*
G03*
X116982000Y-114827950I999999J-1D01*
G01*
X166182000Y-89127950D02*
X166182000Y-89227950D01*
X114782000Y-93527950D02*
G75*
G03*
X114782000Y-97527950I0J-2000000D01*
G01*
X115382000Y-93827950D02*
G75*
G03*
X115582000Y-94027950I200001J1D01*
G01*
X124582000Y-135227950D02*
G75*
G03*
X124782000Y-135027950I-1J200001D01*
G01*
X115982000Y-93827950D02*
X115982000Y-92627950D01*
X166182000Y-92727950D02*
G75*
G03*
X166382000Y-92927950I200001J1D01*
G01*
X164582000Y-135827949D02*
G75*
G03*
X165582000Y-134827949I1J999999D01*
G01*
X151682000Y-115027950D02*
X151682000Y-115227950D01*
X171182000Y-121927950D02*
G75*
G03*
X171182000Y-117927950I0J2000000D01*
G01*
X161482000Y-115227950D02*
G75*
G03*
X161682000Y-115427950I200001J1D01*
G01*
X128582000Y-134927950D02*
X128582000Y-135527950D01*
X161482000Y-115027950D02*
X161482000Y-115227950D01*
X171182000Y-92927950D02*
X166382000Y-92927950D01*
X166182000Y-121727950D02*
G75*
G03*
X166382000Y-121927950I200001J1D01*
G01*
X143382000Y-116027950D02*
X143382000Y-115627950D01*
X127782000Y-135027950D02*
G75*
G03*
X127982000Y-135227950I200001J1D01*
G01*
X120082000Y-115027950D02*
X120082000Y-115227950D01*
X153782000Y-134827950D02*
X153782000Y-135027950D01*
X138782000Y-75427950D02*
G75*
G03*
X138982000Y-75627950I200001J1D01*
G01*
X110382000Y-117927950D02*
G75*
G03*
X110382000Y-121927950I0J-2000000D01*
G01*
X143382000Y-75027950D02*
G75*
G03*
X143082000Y-75327950I0J-300000D01*
G01*
X153582000Y-135227950D02*
G75*
G03*
X153782000Y-135027950I-1J200001D01*
G01*
X153482000Y-135227950D02*
G75*
G03*
X153282000Y-135427950I1J-200001D01*
G01*
X139282000Y-76027950D02*
X139282000Y-75827950D01*
X171182000Y-117927950D02*
X166382000Y-117927950D01*
X165782000Y-121427950D02*
G75*
G03*
X165582000Y-121627950I1J-200001D01*
G01*
X115982000Y-118227950D02*
X115982000Y-116427950D01*
X142482000Y-114827950D02*
X151482000Y-114827950D01*
X165582000Y-113827950D02*
X165582000Y-97227950D01*
X115982000Y-134827950D02*
G75*
G03*
X116982000Y-135827950I999999J-1D01*
G01*
M02*
