G04 #@! TF.GenerationSoftware,KiCad,Pcbnew,(5.1.10)-1*
G04 #@! TF.CreationDate,2021-05-31T21:43:59-04:00*
G04 #@! TF.ProjectId,C64-Composite-Modulator,4336342d-436f-46d7-906f-736974652d4d,1*
G04 #@! TF.SameCoordinates,Original*
G04 #@! TF.FileFunction,Soldermask,Top*
G04 #@! TF.FilePolarity,Negative*
%FSLAX46Y46*%
G04 Gerber Fmt 4.6, Leading zero omitted, Abs format (unit mm)*
G04 Created by KiCad (PCBNEW (5.1.10)-1) date 2021-05-31 21:43:59*
%MOMM*%
%LPD*%
G01*
G04 APERTURE LIST*
%ADD10R,1.700000X1.700000*%
%ADD11O,1.700000X1.700000*%
%ADD12C,3.616000*%
%ADD13C,2.550000*%
%ADD14C,1.200000*%
%ADD15O,1.308000X2.616000*%
%ADD16O,2.616000X1.308000*%
%ADD17R,1.000000X1.000000*%
%ADD18C,1.440000*%
G04 APERTURE END LIST*
D10*
X166547000Y-94997000D03*
X115047000Y-94997000D03*
X170797000Y-119997000D03*
X170797000Y-89997000D03*
X110797000Y-119997000D03*
D11*
X121027000Y-130497000D03*
X123567000Y-130497000D03*
X126107000Y-130497000D03*
D10*
X128647000Y-130497000D03*
D11*
X121027000Y-110497000D03*
X123567000Y-110497000D03*
X126107000Y-110497000D03*
D10*
X128647000Y-110497000D03*
D11*
X152927000Y-110497000D03*
X155467000Y-110497000D03*
X158007000Y-110497000D03*
D10*
X160547000Y-110497000D03*
X159247000Y-105516000D03*
D11*
X156707000Y-105516000D03*
X154167000Y-105516000D03*
D10*
X143352000Y-78722000D03*
D11*
X140812000Y-78722000D03*
X138272000Y-78722000D03*
D12*
X126797000Y-77447000D03*
X121797000Y-81947000D03*
X131797000Y-81947000D03*
D13*
X126797000Y-81947000D03*
D10*
X110797000Y-89997000D03*
D11*
X152927000Y-130497000D03*
X155467000Y-130497000D03*
X158007000Y-130497000D03*
D10*
X160547000Y-130497000D03*
D14*
X149797000Y-79747000D03*
X149797000Y-77247000D03*
X154797000Y-84747000D03*
X159797000Y-79747000D03*
X159797000Y-77247000D03*
D15*
X159797000Y-84747000D03*
X149797000Y-84747000D03*
D16*
X154797000Y-79747000D03*
D17*
X158390000Y-96513000D03*
X161183000Y-96513000D03*
X131801500Y-96240000D03*
X121777500Y-96250000D03*
D18*
X125572000Y-90105000D03*
X128112000Y-92645000D03*
X125572000Y-95185000D03*
X153572000Y-90105000D03*
X156112000Y-92645000D03*
X153572000Y-95185000D03*
D17*
X139450000Y-92963750D03*
X149956000Y-101720000D03*
X149956000Y-96513000D03*
D10*
X143322000Y-105516000D03*
D11*
X140782000Y-105516000D03*
X138242000Y-105516000D03*
M02*
