%TF.GenerationSoftware,KiCad,Pcbnew,(6.0.1)*%
%TF.CreationDate,2022-01-30T12:56:23-05:00*%
%TF.ProjectId,C64-Composite-Modulator,4336342d-436f-46d7-906f-736974652d4d,0825*%
%TF.SameCoordinates,Original*%
%TF.FileFunction,Soldermask,Top*%
%TF.FilePolarity,Negative*%
%FSLAX46Y46*%
G04 Gerber Fmt 4.6, Leading zero omitted, Abs format (unit mm)*
G04 Created by KiCad (PCBNEW (6.0.1)) date 2022-01-30 12:56:23*
%MOMM*%
%LPD*%
G01*
G04 APERTURE LIST*
G04 Aperture macros list*
%AMRoundRect*
0 Rectangle with rounded corners*
0 $1 Rounding radius*
0 $2 $3 $4 $5 $6 $7 $8 $9 X,Y pos of 4 corners*
0 Add a 4 corners polygon primitive as box body*
4,1,4,$2,$3,$4,$5,$6,$7,$8,$9,$2,$3,0*
0 Add four circle primitives for the rounded corners*
1,1,$1+$1,$2,$3*
1,1,$1+$1,$4,$5*
1,1,$1+$1,$6,$7*
1,1,$1+$1,$8,$9*
0 Add four rect primitives between the rounded corners*
20,1,$1+$1,$2,$3,$4,$5,0*
20,1,$1+$1,$4,$5,$6,$7,0*
20,1,$1+$1,$6,$7,$8,$9,0*
20,1,$1+$1,$8,$9,$2,$3,0*%
G04 Aperture macros list end*
%ADD10R,2.000000X2.000000*%
%ADD11C,1.440000*%
%ADD12C,3.000000*%
%ADD13RoundRect,1.000000X-1.000000X1.500000X-1.000000X-1.500000X1.000000X-1.500000X1.000000X1.500000X0*%
%ADD14RoundRect,1.000000X-1.500000X1.000000X-1.500000X-1.000000X1.500000X-1.000000X1.500000X1.000000X0*%
%ADD15R,1.700000X1.700000*%
%ADD16O,1.700000X1.700000*%
%ADD17C,1.600000*%
%ADD18C,2.000000*%
G04 APERTURE END LIST*
D10*
X145108200Y-91327950D03*
X136455800Y-91327950D03*
X128522000Y-96327950D03*
D11*
X154042000Y-91327950D03*
X156582000Y-91327950D03*
X159122000Y-91327950D03*
D12*
X128082000Y-81874450D03*
D13*
X123082000Y-81874450D03*
D14*
X128082000Y-77374450D03*
D13*
X133082000Y-81874450D03*
D11*
X127522000Y-91327950D03*
X124982000Y-91327950D03*
X122442000Y-91327950D03*
D15*
X154067000Y-104327950D03*
D16*
X156607000Y-104327950D03*
X159147000Y-104327950D03*
D12*
X153482001Y-81874450D03*
D13*
X158482001Y-81874450D03*
D14*
X153482001Y-77374450D03*
D13*
X148482001Y-81874450D03*
D10*
X124982000Y-104327950D03*
X121422000Y-96327950D03*
X160142000Y-96327950D03*
X153042000Y-96327950D03*
D17*
X121162000Y-103840450D03*
X121162000Y-108840450D03*
D15*
X160422000Y-132327950D03*
D16*
X157862000Y-132327950D03*
X155322000Y-132327950D03*
X152782000Y-132327950D03*
X128782000Y-132327950D03*
X126242000Y-132327950D03*
X123702000Y-132327950D03*
X121162000Y-132327950D03*
D18*
X171182000Y-90927950D03*
X171182000Y-119927950D03*
X126282000Y-135827950D03*
X110382000Y-90927950D03*
X110382000Y-119927950D03*
X155282000Y-135827950D03*
D10*
X140782000Y-100427950D03*
D15*
X160422000Y-111527950D03*
D16*
X157862000Y-111527950D03*
X155322000Y-111527950D03*
X152782000Y-111527950D03*
X128782000Y-111527950D03*
X126242000Y-111527950D03*
X123702000Y-111527950D03*
X121162000Y-111527950D03*
D18*
X140782000Y-75027950D03*
X114782000Y-95527950D03*
X140782000Y-116027950D03*
X166782000Y-95527950D03*
D10*
X161687000Y-100427950D03*
D15*
X138257000Y-104327950D03*
D16*
X140797000Y-104327950D03*
X143337000Y-104327950D03*
M02*
