M48
; DRILL file {KiCad (6.0.1)} date Mon Jan 31 14:39:36 2022
; FORMAT={-:-/ absolute / metric / decimal}
; #@! TF.CreationDate,2022-01-31T14:39:36-05:00
; #@! TF.GenerationSoftware,Kicad,Pcbnew,(6.0.1)
; #@! TF.FileFunction,Plated,1,2,PTH
FMAT,2
METRIC
; #@! TA.AperFunction,Plated,PTH,ComponentDrill
T1C0.800
; #@! TA.AperFunction,Plated,PTH,ComponentDrill
T2C1.000
; #@! TA.AperFunction,Plated,PTH,ComponentDrill
T3C2.000
%
G90
G05
T1
X121.162Y-103.84
X121.162Y-108.84
X122.442Y-91.328
X124.982Y-91.328
X127.522Y-91.328
X154.042Y-91.328
X156.582Y-91.328
X159.122Y-91.328
T2
X110.382Y-90.928
X110.382Y-119.928
X114.782Y-95.528
X121.162Y-111.528
X121.162Y-132.328
X121.422Y-96.328
X123.702Y-111.528
X123.702Y-132.328
X124.982Y-104.328
X126.242Y-111.528
X126.242Y-132.328
X126.282Y-135.828
X128.522Y-96.328
X128.782Y-111.528
X128.782Y-132.328
X136.456Y-91.328
X138.257Y-104.328
X140.782Y-75.028
X140.782Y-100.428
X140.782Y-116.028
X140.797Y-104.328
X143.337Y-104.328
X145.108Y-91.328
X152.782Y-111.528
X152.782Y-132.328
X153.042Y-96.328
X154.067Y-104.328
X155.282Y-135.828
X155.322Y-111.528
X155.322Y-132.328
X156.607Y-104.328
X157.862Y-111.528
X157.862Y-132.328
X159.147Y-104.328
X160.142Y-96.328
X160.422Y-111.528
X160.422Y-132.328
X161.687Y-100.428
X166.782Y-95.528
X171.182Y-90.928
X171.182Y-119.928
T3
X128.082Y-81.874
X153.482Y-81.874
T3
X123.082Y-81.374G85X123.082Y-82.374
G05
X128.582Y-77.374G85X127.582Y-77.374
G05
X133.082Y-81.374G85X133.082Y-82.374
G05
X148.482Y-81.374G85X148.482Y-82.374
G05
X153.982Y-77.374G85X152.982Y-77.374
G05
X158.482Y-81.374G85X158.482Y-82.374
G05
T0
M30
