%TF.GenerationSoftware,KiCad,Pcbnew,(6.0.1)*%
%TF.CreationDate,2022-01-31T14:39:12-05:00*%
%TF.ProjectId,C64-Composite-Modulator,4336342d-436f-46d7-906f-736974652d4d,0825*%
%TF.SameCoordinates,Original*%
%TF.FileFunction,Paste,Bot*%
%TF.FilePolarity,Positive*%
%FSLAX46Y46*%
G04 Gerber Fmt 4.6, Leading zero omitted, Abs format (unit mm)*
G04 Created by KiCad (PCBNEW (6.0.1)) date 2022-01-31 14:39:12*
%MOMM*%
%LPD*%
G01*
G04 APERTURE LIST*
G04 Aperture macros list*
%AMRoundRect*
0 Rectangle with rounded corners*
0 $1 Rounding radius*
0 $2 $3 $4 $5 $6 $7 $8 $9 X,Y pos of 4 corners*
0 Add a 4 corners polygon primitive as box body*
4,1,4,$2,$3,$4,$5,$6,$7,$8,$9,$2,$3,0*
0 Add four circle primitives for the rounded corners*
1,1,$1+$1,$2,$3*
1,1,$1+$1,$4,$5*
1,1,$1+$1,$6,$7*
1,1,$1+$1,$8,$9*
0 Add four rect primitives between the rounded corners*
20,1,$1+$1,$2,$3,$4,$5,0*
20,1,$1+$1,$4,$5,$6,$7,0*
20,1,$1+$1,$6,$7,$8,$9,0*
20,1,$1+$1,$8,$9,$2,$3,0*%
%AMFreePoly0*
4,1,9,3.862500,-0.866500,0.737500,-0.866500,0.737500,-0.450000,-0.737500,-0.450000,-0.737500,0.450000,0.737500,0.450000,0.737500,0.866500,3.862500,0.866500,3.862500,-0.866500,3.862500,-0.866500,$1*%
G04 Aperture macros list end*
%ADD10RoundRect,0.250000X-0.450000X0.262500X-0.450000X-0.262500X0.450000X-0.262500X0.450000X0.262500X0*%
%ADD11RoundRect,0.250000X-0.475000X0.250000X-0.475000X-0.250000X0.475000X-0.250000X0.475000X0.250000X0*%
%ADD12R,0.900000X1.300000*%
%ADD13FreePoly0,270.000000*%
%ADD14RoundRect,0.150000X-0.587500X-0.150000X0.587500X-0.150000X0.587500X0.150000X-0.587500X0.150000X0*%
%ADD15R,0.500000X0.500000*%
%ADD16RoundRect,0.218750X-0.381250X0.218750X-0.381250X-0.218750X0.381250X-0.218750X0.381250X0.218750X0*%
%ADD17RoundRect,0.250000X-0.650000X0.325000X-0.650000X-0.325000X0.650000X-0.325000X0.650000X0.325000X0*%
G04 APERTURE END LIST*
D10*
X139523266Y-90415450D03*
X139523266Y-92240450D03*
X161687000Y-104327950D03*
X161687000Y-106152950D03*
X129072000Y-107090450D03*
X129072000Y-108915450D03*
D11*
X136455800Y-94485450D03*
X136455800Y-96385450D03*
D10*
X132189500Y-94502950D03*
X132189500Y-96327950D03*
X149499500Y-94502950D03*
X149499500Y-96327950D03*
D12*
X139282000Y-107147950D03*
D13*
X140782000Y-107235450D03*
D12*
X142282000Y-107147950D03*
D11*
X126348666Y-107015450D03*
X126348666Y-108915450D03*
D14*
X124982000Y-101377950D03*
X124982000Y-99477950D03*
X126857000Y-100427950D03*
X156592000Y-101377950D03*
X156592000Y-99477950D03*
X158467000Y-100427950D03*
D15*
X156592000Y-108947950D03*
X156592000Y-106747950D03*
D10*
X142040732Y-90415450D03*
X142040732Y-92240450D03*
X129072000Y-100427950D03*
X129072000Y-102252950D03*
X151527000Y-104327950D03*
X151527000Y-106152950D03*
X156592000Y-95415450D03*
X156592000Y-97240450D03*
D16*
X145108200Y-94372950D03*
X145108200Y-96497950D03*
D10*
X124982000Y-95415450D03*
X124982000Y-97240450D03*
D17*
X134682000Y-107147950D03*
X134682000Y-110097950D03*
D10*
X123625333Y-107015450D03*
X123625333Y-108840450D03*
D17*
X146882000Y-107147950D03*
X146882000Y-110097950D03*
D11*
X144482000Y-107147950D03*
X144482000Y-109047950D03*
X137082000Y-107147950D03*
X137082000Y-109047950D03*
M02*
