M48
; DRILL file {KiCad (5.1.10)-1} date 05/27/21 20:09:39
; FORMAT={-:-/ absolute / metric / decimal}
; #@! TF.CreationDate,2021-05-27T20:09:39-04:00
; #@! TF.GenerationSoftware,Kicad,Pcbnew,(5.1.10)-1
; #@! TF.FileFunction,Plated,1,2,PTH
FMAT,2
METRIC
T1C0.500
T2C0.800
T3C1.000
T4C1.700
T5C2.600
%
G90
G05
T1
X121.777Y-96.25
X131.802Y-96.24
X139.45Y-92.964
X149.956Y-96.513
X149.956Y-101.72
X158.39Y-96.513
X161.183Y-96.513
T2
X125.572Y-90.105
X125.572Y-95.185
X128.112Y-92.645
X153.572Y-90.105
X153.572Y-95.185
X156.112Y-92.645
T3
X110.797Y-89.997
X110.797Y-119.997
X115.047Y-94.997
X121.027Y-110.497
X121.027Y-130.497
X123.567Y-110.497
X123.567Y-130.497
X126.107Y-110.497
X126.107Y-130.497
X128.647Y-110.497
X128.647Y-130.497
X138.242Y-105.516
X138.272Y-78.731
X140.782Y-105.516
X140.812Y-78.731
X143.322Y-105.516
X143.352Y-78.731
X152.927Y-110.497
X152.927Y-130.497
X154.197Y-105.516
X155.467Y-110.497
X155.467Y-130.497
X156.737Y-105.516
X158.007Y-110.497
X158.007Y-130.497
X159.277Y-105.516
X160.547Y-110.497
X160.547Y-130.497
X166.547Y-94.997
X170.797Y-89.997
X170.797Y-119.997
T4
X126.797Y-81.947
T5
X121.797Y-81.947
X126.797Y-77.447
X131.797Y-81.947
T2
X149.797Y-84.397G85X149.797Y-85.097
G05
X155.147Y-79.747G85X154.447Y-79.747
G05
X159.797Y-84.397G85X159.797Y-85.097
G05
T0
M30
